<svg width="297" height="352" viewBox="0 0 297 352" fill="none" xmlns="http://www.w3.org/2000/svg">
<g filter="url(#filter0_d_372_4530)">
<rect x="16" y="16.5" width="257" height="97" rx="20" fill="#4318FF"/>
<path d="M39.136 55.5V44.3H43.056C43.9307 44.3 44.656 44.4493 45.232 44.748C45.808 45.036 46.2347 45.436 46.512 45.948C46.8 46.4493 46.944 47.02 46.944 47.66C46.944 48.268 46.8053 48.828 46.528 49.34C46.2613 49.8413 45.84 50.2413 45.264 50.54C44.688 50.8387 43.952 50.988 43.056 50.988H40.832V55.5H39.136ZM40.832 49.596H42.976C43.776 49.596 44.3467 49.4253 44.688 49.084C45.04 48.732 45.216 48.2573 45.216 47.66C45.216 47.0413 45.04 46.5613 44.688 46.22C44.3467 45.868 43.776 45.692 42.976 45.692H40.832V49.596ZM51.5109 55.692C50.7322 55.692 50.0389 55.5213 49.4309 55.18C48.8335 54.828 48.3642 54.3427 48.0229 53.724C47.6815 53.1053 47.5109 52.3853 47.5109 51.564C47.5109 50.732 47.6762 50.0013 48.0069 49.372C48.3482 48.7427 48.8175 48.252 49.4149 47.9C50.0229 47.548 50.7269 47.372 51.5269 47.372C52.3055 47.372 52.9829 47.548 53.5589 47.9C54.1349 48.2413 54.5829 48.7 54.9029 49.276C55.2229 49.852 55.3829 50.4867 55.3829 51.18C55.3829 51.2867 55.3775 51.404 55.3669 51.532C55.3669 51.6493 55.3615 51.7827 55.3509 51.932H49.1749C49.2282 52.7 49.4789 53.2867 49.9269 53.692C50.3855 54.0867 50.9135 54.284 51.5109 54.284C51.9909 54.284 52.3909 54.1773 52.7109 53.964C53.0415 53.74 53.2869 53.4413 53.4469 53.068H55.1429C54.9295 53.8147 54.5029 54.4387 53.8629 54.94C53.2335 55.4413 52.4495 55.692 51.5109 55.692ZM51.5109 48.764C50.9455 48.764 50.4442 48.9347 50.0069 49.276C49.5695 49.6067 49.3029 50.108 49.2069 50.78H53.6869C53.6549 50.1613 53.4362 49.6707 53.0309 49.308C52.6255 48.9453 52.1189 48.764 51.5109 48.764ZM56.8226 55.5V47.564H58.3266L58.4546 48.956C58.7 48.4653 59.0573 48.0813 59.5266 47.804C60.0066 47.516 60.556 47.372 61.1746 47.372C62.1346 47.372 62.8866 47.6707 63.4306 48.268C63.9853 48.8653 64.2626 49.756 64.2626 50.94V55.5H62.5826V51.116C62.5826 49.58 61.9533 48.812 60.6946 48.812C60.0653 48.812 59.5426 49.036 59.1266 49.484C58.7213 49.932 58.5186 50.572 58.5186 51.404V55.5H56.8226ZM69.5561 55.692C68.7881 55.692 68.1108 55.5107 67.5241 55.148C66.9375 54.7853 66.4788 54.2893 66.1481 53.66C65.8175 53.0307 65.6521 52.316 65.6521 51.516C65.6521 50.716 65.8175 50.0067 66.1481 49.388C66.4788 48.7587 66.9375 48.268 67.5241 47.916C68.1215 47.5533 68.8041 47.372 69.5721 47.372C70.2015 47.372 70.7508 47.4947 71.2201 47.74C71.7001 47.9853 72.0735 48.332 72.3401 48.78V43.98H74.0361V55.5H72.5161L72.3401 54.268C72.0841 54.6413 71.7321 54.972 71.2841 55.26C70.8361 55.548 70.2601 55.692 69.5561 55.692ZM69.8601 54.22C70.5855 54.22 71.1775 53.9693 71.6361 53.468C72.1055 52.9667 72.3401 52.3213 72.3401 51.532C72.3401 50.732 72.1055 50.0867 71.6361 49.596C71.1775 49.0947 70.5855 48.844 69.8601 48.844C69.1348 48.844 68.5375 49.0947 68.0681 49.596C67.5988 50.0867 67.3641 50.732 67.3641 51.532C67.3641 52.0547 67.4708 52.5187 67.6841 52.924C67.8975 53.3293 68.1908 53.6493 68.5641 53.884C68.9481 54.108 69.3801 54.22 69.8601 54.22ZM76.8145 46.06C76.4945 46.06 76.2278 45.964 76.0145 45.772C75.8118 45.5693 75.7105 45.3187 75.7105 45.02C75.7105 44.7213 75.8118 44.476 76.0145 44.284C76.2278 44.0813 76.4945 43.98 76.8145 43.98C77.1345 43.98 77.3958 44.0813 77.5985 44.284C77.8118 44.476 77.9185 44.7213 77.9185 45.02C77.9185 45.3187 77.8118 45.5693 77.5985 45.772C77.3958 45.964 77.1345 46.06 76.8145 46.06ZM75.9665 55.5V47.564H77.6625V55.5H75.9665ZM79.5814 55.5V47.564H81.0854L81.2134 48.956C81.4587 48.4653 81.816 48.0813 82.2854 47.804C82.7654 47.516 83.3147 47.372 83.9334 47.372C84.8934 47.372 85.6454 47.6707 86.1894 48.268C86.744 48.8653 87.0214 49.756 87.0214 50.94V55.5H85.3414V51.116C85.3414 49.58 84.712 48.812 83.4534 48.812C82.824 48.812 82.3014 49.036 81.8854 49.484C81.48 49.932 81.2774 50.572 81.2774 51.404V55.5H79.5814ZM91.9469 53.068C91.5309 53.068 91.1469 53.02 90.7949 52.924L90.1069 53.596C90.2242 53.6707 90.3682 53.7347 90.5389 53.788C90.7095 53.8413 90.9495 53.8893 91.2589 53.932C91.5682 53.9747 91.9895 54.0173 92.5229 54.06C93.5789 54.156 94.3415 54.412 94.8109 54.828C95.2802 55.2333 95.5149 55.7773 95.5149 56.46C95.5149 56.9293 95.3869 57.372 95.1309 57.788C94.8855 58.2147 94.4962 58.556 93.9629 58.812C93.4402 59.0787 92.7682 59.212 91.9469 59.212C90.8375 59.212 89.9362 58.9987 89.2429 58.572C88.5602 58.156 88.2189 57.5213 88.2189 56.668C88.2189 56.3373 88.3042 56.0067 88.4749 55.676C88.6562 55.356 88.9389 55.052 89.3229 54.764C89.0989 54.668 88.9015 54.5667 88.7309 54.46C88.5709 54.3427 88.4269 54.2253 88.2989 54.108V53.724L89.6749 52.316C89.0562 51.7827 88.7469 51.084 88.7469 50.22C88.7469 49.6973 88.8695 49.2227 89.1149 48.796C89.3709 48.3587 89.7389 48.012 90.2189 47.756C90.6989 47.5 91.2749 47.372 91.9469 47.372C92.3949 47.372 92.8109 47.436 93.1949 47.564H96.1549V48.684L94.7469 48.764C95.0029 49.2013 95.1309 49.6867 95.1309 50.22C95.1309 50.7533 95.0029 51.2333 94.7469 51.66C94.5015 52.0867 94.1389 52.428 93.6589 52.684C93.1895 52.94 92.6189 53.068 91.9469 53.068ZM91.9469 51.74C92.4375 51.74 92.8322 51.612 93.1309 51.356C93.4402 51.0893 93.5949 50.716 93.5949 50.236C93.5949 49.7453 93.4402 49.372 93.1309 49.116C92.8322 48.86 92.4375 48.732 91.9469 48.732C91.4455 48.732 91.0402 48.86 90.7309 49.116C90.4322 49.372 90.2829 49.7453 90.2829 50.236C90.2829 50.716 90.4322 51.0893 90.7309 51.356C91.0402 51.612 91.4455 51.74 91.9469 51.74ZM89.8189 56.508C89.8189 56.9667 90.0215 57.308 90.4269 57.532C90.8322 57.7667 91.3389 57.884 91.9469 57.884C92.5335 57.884 93.0082 57.756 93.3709 57.5C93.7335 57.2547 93.9149 56.924 93.9149 56.508C93.9149 56.1987 93.7922 55.932 93.5469 55.708C93.3015 55.4947 92.8375 55.3613 92.1549 55.308C91.6429 55.276 91.1895 55.228 90.7949 55.164C90.4215 55.3667 90.1655 55.5853 90.0269 55.82C89.8882 56.0547 89.8189 56.284 89.8189 56.508ZM101.123 55.5V44.3H104.979C105.864 44.3 106.59 44.4493 107.155 44.748C107.731 45.0467 108.158 45.452 108.435 45.964C108.712 46.4653 108.851 47.0253 108.851 47.644C108.851 48.3373 108.664 48.9667 108.291 49.532C107.928 50.0973 107.358 50.5027 106.579 50.748L108.963 55.5H106.995L104.819 50.988H102.819V55.5H101.123ZM102.819 49.708H104.883C105.651 49.708 106.211 49.5213 106.563 49.148C106.926 48.7747 107.107 48.2893 107.107 47.692C107.107 47.0947 106.931 46.62 106.579 46.268C106.227 45.9053 105.656 45.724 104.867 45.724H102.819V49.708ZM113.701 55.692C112.922 55.692 112.229 55.5213 111.621 55.18C111.024 54.828 110.554 54.3427 110.213 53.724C109.872 53.1053 109.701 52.3853 109.701 51.564C109.701 50.732 109.866 50.0013 110.197 49.372C110.538 48.7427 111.008 48.252 111.605 47.9C112.213 47.548 112.917 47.372 113.717 47.372C114.496 47.372 115.173 47.548 115.749 47.9C116.325 48.2413 116.773 48.7 117.093 49.276C117.413 49.852 117.573 50.4867 117.573 51.18C117.573 51.2867 117.568 51.404 117.557 51.532C117.557 51.6493 117.552 51.7827 117.541 51.932H111.365C111.418 52.7 111.669 53.2867 112.117 53.692C112.576 54.0867 113.104 54.284 113.701 54.284C114.181 54.284 114.581 54.1773 114.901 53.964C115.232 53.74 115.477 53.4413 115.637 53.068H117.333C117.12 53.8147 116.693 54.4387 116.053 54.94C115.424 55.4413 114.64 55.692 113.701 55.692ZM113.701 48.764C113.136 48.764 112.634 48.9347 112.197 49.276C111.76 49.6067 111.493 50.108 111.397 50.78H115.877C115.845 50.1613 115.626 49.6707 115.221 49.308C114.816 48.9453 114.309 48.764 113.701 48.764ZM125.413 59.02V54.268C125.157 54.6413 124.805 54.972 124.357 55.26C123.909 55.548 123.333 55.692 122.629 55.692C121.861 55.692 121.183 55.5107 120.597 55.148C120.01 54.7853 119.551 54.2893 119.221 53.66C118.89 53.0307 118.725 52.316 118.725 51.516C118.725 50.716 118.89 50.0067 119.221 49.388C119.551 48.7587 120.01 48.268 120.597 47.916C121.194 47.5533 121.877 47.372 122.645 47.372C123.274 47.372 123.823 47.4947 124.293 47.74C124.773 47.9853 125.146 48.332 125.413 48.78L125.589 47.564H127.109V59.02H125.413ZM122.933 54.22C123.658 54.22 124.25 53.9693 124.709 53.468C125.178 52.9667 125.413 52.3213 125.413 51.532C125.413 50.732 125.178 50.0867 124.709 49.596C124.25 49.0947 123.658 48.844 122.933 48.844C122.207 48.844 121.61 49.0947 121.141 49.596C120.671 50.0867 120.437 50.732 120.437 51.532C120.437 52.0547 120.543 52.5187 120.757 52.924C120.97 53.3293 121.263 53.6493 121.637 53.884C122.021 54.108 122.453 54.22 122.933 54.22ZM131.855 55.692C130.895 55.692 130.138 55.3933 129.583 54.796C129.039 54.1987 128.767 53.308 128.767 52.124V47.564H130.463V51.948C130.463 53.484 131.092 54.252 132.351 54.252C132.98 54.252 133.498 54.028 133.903 53.58C134.308 53.132 134.511 52.492 134.511 51.66V47.564H136.207V55.5H134.703L134.575 54.108C134.33 54.5987 133.967 54.988 133.487 55.276C133.018 55.5533 132.474 55.692 131.855 55.692ZM141.757 55.692C140.978 55.692 140.285 55.5213 139.677 55.18C139.079 54.828 138.61 54.3427 138.269 53.724C137.927 53.1053 137.757 52.3853 137.757 51.564C137.757 50.732 137.922 50.0013 138.253 49.372C138.594 48.7427 139.063 48.252 139.661 47.9C140.269 47.548 140.973 47.372 141.773 47.372C142.551 47.372 143.229 47.548 143.805 47.9C144.381 48.2413 144.829 48.7 145.149 49.276C145.469 49.852 145.629 50.4867 145.629 51.18C145.629 51.2867 145.623 51.404 145.613 51.532C145.613 51.6493 145.607 51.7827 145.597 51.932H139.421C139.474 52.7 139.725 53.2867 140.173 53.692C140.631 54.0867 141.159 54.284 141.757 54.284C142.237 54.284 142.637 54.1773 142.957 53.964C143.287 53.74 143.533 53.4413 143.693 53.068H145.389C145.175 53.8147 144.749 54.4387 144.109 54.94C143.479 55.4413 142.695 55.692 141.757 55.692ZM141.757 48.764C141.191 48.764 140.69 48.9347 140.253 49.276C139.815 49.6067 139.549 50.108 139.453 50.78H143.933C143.901 50.1613 143.682 49.6707 143.277 49.308C142.871 48.9453 142.365 48.764 141.757 48.764ZM150.236 55.692C149.234 55.692 148.407 55.4467 147.756 54.956C147.106 54.4653 146.732 53.8147 146.636 53.004H148.348C148.434 53.3667 148.636 53.6813 148.956 53.948C149.276 54.204 149.698 54.332 150.22 54.332C150.732 54.332 151.106 54.2253 151.34 54.012C151.575 53.7987 151.692 53.5533 151.692 53.276C151.692 52.8707 151.527 52.5987 151.196 52.46C150.876 52.3107 150.428 52.1773 149.852 52.06C149.404 51.964 148.956 51.836 148.508 51.676C148.071 51.516 147.703 51.292 147.404 51.004C147.116 50.7053 146.972 50.3053 146.972 49.804C146.972 49.1107 147.239 48.5347 147.772 48.076C148.306 47.6067 149.052 47.372 150.012 47.372C150.898 47.372 151.612 47.5853 152.156 48.012C152.711 48.4387 153.036 49.0413 153.132 49.82H151.5C151.447 49.4787 151.287 49.212 151.02 49.02C150.764 48.828 150.418 48.732 149.98 48.732C149.554 48.732 149.223 48.8227 148.988 49.004C148.754 49.1747 148.636 49.3987 148.636 49.676C148.636 49.9533 148.796 50.172 149.116 50.332C149.447 50.492 149.879 50.636 150.412 50.764C150.946 50.8813 151.436 51.02 151.884 51.18C152.343 51.3293 152.711 51.5533 152.988 51.852C153.266 52.1507 153.404 52.588 153.404 53.164C153.415 53.8893 153.132 54.492 152.556 54.972C151.991 55.452 151.218 55.692 150.236 55.692ZM157.967 55.5C157.188 55.5 156.57 55.3133 156.111 54.94C155.652 54.556 155.423 53.8787 155.423 52.908V48.988H154.063V47.564H155.423L155.631 45.548H157.119V47.564H159.359V48.988H157.119V52.908C157.119 53.3453 157.21 53.6493 157.391 53.82C157.583 53.98 157.908 54.06 158.367 54.06H159.279V55.5H157.967ZM163.956 55.692C162.953 55.692 162.126 55.4467 161.476 54.956C160.825 54.4653 160.452 53.8147 160.356 53.004H162.068C162.153 53.3667 162.356 53.6813 162.676 53.948C162.996 54.204 163.417 54.332 163.94 54.332C164.452 54.332 164.825 54.2253 165.06 54.012C165.294 53.7987 165.412 53.5533 165.412 53.276C165.412 52.8707 165.246 52.5987 164.916 52.46C164.596 52.3107 164.148 52.1773 163.572 52.06C163.124 51.964 162.676 51.836 162.228 51.676C161.79 51.516 161.422 51.292 161.124 51.004C160.836 50.7053 160.692 50.3053 160.692 49.804C160.692 49.1107 160.958 48.5347 161.492 48.076C162.025 47.6067 162.772 47.372 163.732 47.372C164.617 47.372 165.332 47.5853 165.876 48.012C166.43 48.4387 166.756 49.0413 166.852 49.82H165.22C165.166 49.4787 165.006 49.212 164.74 49.02C164.484 48.828 164.137 48.732 163.7 48.732C163.273 48.732 162.942 48.8227 162.708 49.004C162.473 49.1747 162.356 49.3987 162.356 49.676C162.356 49.9533 162.516 50.172 162.836 50.332C163.166 50.492 163.598 50.636 164.132 50.764C164.665 50.8813 165.156 51.02 165.604 51.18C166.062 51.3293 166.43 51.5533 166.708 51.852C166.985 52.1507 167.124 52.588 167.124 53.164C167.134 53.8893 166.852 54.492 166.276 54.972C165.71 55.452 164.937 55.692 163.956 55.692Z" fill="#E9EDF7"/>
<path d="M39.224 87.0786V84.8466C40.248 83.9986 41.24 83.1586 42.2 82.3266C43.176 81.4946 44.04 80.6706 44.792 79.8546C45.56 79.0386 46.168 78.2466 46.616 77.4786C47.08 76.6946 47.312 75.9346 47.312 75.1986C47.312 74.5106 47.12 73.9026 46.736 73.3746C46.368 72.8466 45.752 72.5826 44.888 72.5826C44.008 72.5826 43.344 72.8706 42.896 73.4466C42.448 74.0226 42.224 74.7186 42.224 75.5346H39.248C39.28 74.3026 39.552 73.2786 40.064 72.4626C40.576 71.6306 41.256 71.0146 42.104 70.6146C42.952 70.1986 43.904 69.9906 44.96 69.9906C46.672 69.9906 48 70.4626 48.944 71.4066C49.904 72.3346 50.384 73.5426 50.384 75.0306C50.384 75.9586 50.168 76.8626 49.736 77.7426C49.32 78.6226 48.768 79.4706 48.08 80.2866C47.392 81.1026 46.648 81.8706 45.848 82.5906C45.048 83.2946 44.272 83.9506 43.52 84.5586H50.792V87.0786H39.224ZM59.6338 87.3666C58.0818 87.3666 56.7538 87.0066 55.6498 86.2866C54.5458 85.5506 53.6898 84.5346 53.0818 83.2386C52.4898 81.9266 52.1938 80.4066 52.1938 78.6786C52.1938 76.9666 52.4898 75.4546 53.0818 74.1426C53.6898 72.8306 54.5458 71.8146 55.6498 71.0946C56.7538 70.3586 58.0818 69.9906 59.6338 69.9906C61.1858 69.9906 62.5138 70.3586 63.6178 71.0946C64.7218 71.8146 65.5698 72.8306 66.1618 74.1426C66.7698 75.4546 67.0738 76.9666 67.0738 78.6786C67.0738 80.4066 66.7698 81.9266 66.1618 83.2386C65.5698 84.5346 64.7218 85.5506 63.6178 86.2866C62.5138 87.0066 61.1858 87.3666 59.6338 87.3666ZM59.6338 84.6066C60.8978 84.6066 61.9298 84.0786 62.7298 83.0226C63.5298 81.9666 63.9298 80.5186 63.9298 78.6786C63.9298 76.8386 63.5298 75.3906 62.7298 74.3346C61.9298 73.2786 60.8978 72.7506 59.6338 72.7506C58.3538 72.7506 57.3138 73.2786 56.5138 74.3346C55.7298 75.3906 55.3378 76.8386 55.3378 78.6786C55.3378 80.5186 55.7298 81.9666 56.5138 83.0226C57.3138 84.0786 58.3538 84.6066 59.6338 84.6066ZM76.1928 87.3666C74.6408 87.3666 73.3128 87.0066 72.2088 86.2866C71.1048 85.5506 70.2488 84.5346 69.6408 83.2386C69.0488 81.9266 68.7528 80.4066 68.7528 78.6786C68.7528 76.9666 69.0488 75.4546 69.6408 74.1426C70.2488 72.8306 71.1048 71.8146 72.2088 71.0946C73.3128 70.3586 74.6408 69.9906 76.1928 69.9906C77.7448 69.9906 79.0728 70.3586 80.1768 71.0946C81.2808 71.8146 82.1288 72.8306 82.7208 74.1426C83.3288 75.4546 83.6328 76.9666 83.6328 78.6786C83.6328 80.4066 83.3288 81.9266 82.7208 83.2386C82.1288 84.5346 81.2808 85.5506 80.1768 86.2866C79.0728 87.0066 77.7448 87.3666 76.1928 87.3666ZM76.1928 84.6066C77.4568 84.6066 78.4888 84.0786 79.2888 83.0226C80.0888 81.9666 80.4888 80.5186 80.4888 78.6786C80.4888 76.8386 80.0888 75.3906 79.2888 74.3346C78.4888 73.2786 77.4568 72.7506 76.1928 72.7506C74.9128 72.7506 73.8728 73.2786 73.0728 74.3346C72.2888 75.3906 71.8968 76.8386 71.8968 78.6786C71.8968 80.5186 72.2888 81.9666 73.0728 83.0226C73.8728 84.0786 74.9128 84.6066 76.1928 84.6066Z" fill="white"/>
</g>
<g filter="url(#filter1_d_372_4530)">
<rect x="16" y="123.5" width="257" height="97" rx="20" fill="white"/>
<path d="M110.907 165.5V156.044H107.643V154.3H116.331V156.044H113.067V165.5H110.907ZM118.823 165.692C118.151 165.692 117.597 165.585 117.159 165.372C116.722 165.148 116.397 164.855 116.183 164.492C115.97 164.119 115.863 163.713 115.863 163.276C115.863 162.775 115.986 162.343 116.231 161.98C116.487 161.607 116.871 161.313 117.383 161.1C117.895 160.887 118.535 160.78 119.303 160.78H121.303C121.303 160.385 121.25 160.06 121.143 159.804C121.037 159.548 120.871 159.356 120.647 159.228C120.423 159.1 120.125 159.036 119.751 159.036C119.346 159.036 118.999 159.127 118.711 159.308C118.434 159.479 118.258 159.745 118.183 160.108H116.087C116.151 159.532 116.343 159.036 116.663 158.62C116.994 158.193 117.426 157.863 117.959 157.628C118.493 157.393 119.095 157.276 119.767 157.276C120.525 157.276 121.181 157.404 121.735 157.66C122.29 157.905 122.717 158.273 123.015 158.764C123.314 159.244 123.463 159.831 123.463 160.524V165.5H121.639L121.399 164.268C121.282 164.481 121.143 164.673 120.983 164.844C120.823 165.015 120.637 165.164 120.423 165.292C120.21 165.42 119.97 165.516 119.703 165.58C119.437 165.655 119.143 165.692 118.823 165.692ZM119.335 164.028C119.613 164.028 119.858 163.98 120.071 163.884C120.295 163.777 120.487 163.639 120.647 163.468C120.807 163.287 120.93 163.084 121.015 162.86C121.111 162.625 121.175 162.38 121.207 162.124V162.108H119.559C119.229 162.108 118.957 162.151 118.743 162.236C118.541 162.311 118.391 162.423 118.295 162.572C118.199 162.721 118.151 162.892 118.151 163.084C118.151 163.287 118.199 163.457 118.295 163.596C118.391 163.735 118.53 163.841 118.711 163.916C118.893 163.991 119.101 164.028 119.335 164.028ZM128.439 165.692C127.703 165.692 127.063 165.575 126.519 165.34C125.985 165.105 125.559 164.785 125.239 164.38C124.929 163.964 124.753 163.489 124.711 162.956H126.855C126.908 163.159 126.999 163.345 127.127 163.516C127.255 163.676 127.425 163.804 127.639 163.9C127.863 163.996 128.119 164.044 128.407 164.044C128.695 164.044 128.929 164.007 129.111 163.932C129.292 163.847 129.425 163.74 129.511 163.612C129.607 163.473 129.655 163.329 129.655 163.18C129.655 162.945 129.591 162.769 129.463 162.652C129.335 162.535 129.143 162.439 128.887 162.364C128.641 162.289 128.348 162.215 128.007 162.14C127.633 162.065 127.26 161.975 126.887 161.868C126.524 161.751 126.193 161.607 125.895 161.436C125.607 161.265 125.377 161.047 125.207 160.78C125.036 160.513 124.951 160.183 124.951 159.788C124.951 159.319 125.079 158.892 125.335 158.508C125.591 158.124 125.964 157.825 126.455 157.612C126.945 157.388 127.532 157.276 128.215 157.276C129.185 157.276 129.953 157.495 130.519 157.932C131.095 158.369 131.431 158.972 131.527 159.74H129.495C129.441 159.484 129.303 159.287 129.079 159.148C128.855 159.009 128.567 158.94 128.215 158.94C127.831 158.94 127.537 159.009 127.335 159.148C127.143 159.287 127.047 159.463 127.047 159.676C127.047 159.825 127.111 159.959 127.239 160.076C127.367 160.193 127.553 160.295 127.799 160.38C128.044 160.455 128.343 160.529 128.695 160.604C129.313 160.732 129.852 160.876 130.311 161.036C130.78 161.196 131.148 161.431 131.415 161.74C131.681 162.039 131.815 162.476 131.815 163.052C131.825 163.564 131.692 164.023 131.415 164.428C131.137 164.823 130.743 165.132 130.231 165.356C129.729 165.58 129.132 165.692 128.439 165.692ZM138.603 165.5L135.163 161.1L138.235 157.468H140.795L136.811 161.996V160.284L141.291 165.5H138.603ZM133.323 165.5V153.98H135.483V165.5H133.323ZM145.158 165.692C144.422 165.692 143.782 165.575 143.238 165.34C142.705 165.105 142.278 164.785 141.958 164.38C141.649 163.964 141.473 163.489 141.43 162.956H143.574C143.627 163.159 143.718 163.345 143.846 163.516C143.974 163.676 144.145 163.804 144.358 163.9C144.582 163.996 144.838 164.044 145.126 164.044C145.414 164.044 145.649 164.007 145.83 163.932C146.011 163.847 146.145 163.74 146.23 163.612C146.326 163.473 146.374 163.329 146.374 163.18C146.374 162.945 146.31 162.769 146.182 162.652C146.054 162.535 145.862 162.439 145.606 162.364C145.361 162.289 145.067 162.215 144.726 162.14C144.353 162.065 143.979 161.975 143.606 161.868C143.243 161.751 142.913 161.607 142.614 161.436C142.326 161.265 142.097 161.047 141.926 160.78C141.755 160.513 141.67 160.183 141.67 159.788C141.67 159.319 141.798 158.892 142.054 158.508C142.31 158.124 142.683 157.825 143.174 157.612C143.665 157.388 144.251 157.276 144.934 157.276C145.905 157.276 146.673 157.495 147.238 157.932C147.814 158.369 148.15 158.972 148.246 159.74H146.214C146.161 159.484 146.022 159.287 145.798 159.148C145.574 159.009 145.286 158.94 144.934 158.94C144.55 158.94 144.257 159.009 144.054 159.148C143.862 159.287 143.766 159.463 143.766 159.676C143.766 159.825 143.83 159.959 143.958 160.076C144.086 160.193 144.273 160.295 144.518 160.38C144.763 160.455 145.062 160.529 145.414 160.604C146.033 160.732 146.571 160.876 147.03 161.036C147.499 161.196 147.867 161.431 148.134 161.74C148.401 162.039 148.534 162.476 148.534 163.052C148.545 163.564 148.411 164.023 148.134 164.428C147.857 164.823 147.462 165.132 146.95 165.356C146.449 165.58 145.851 165.692 145.158 165.692ZM158.56 165.692C157.45 165.692 156.49 165.452 155.68 164.972C154.869 164.481 154.245 163.804 153.808 162.94C153.37 162.065 153.152 161.057 153.152 159.916C153.152 158.775 153.37 157.767 153.808 156.892C154.245 156.017 154.869 155.335 155.68 154.844C156.49 154.353 157.45 154.108 158.56 154.108C159.925 154.108 161.04 154.444 161.904 155.116C162.768 155.788 163.306 156.737 163.52 157.964H161.152C161.013 157.367 160.725 156.903 160.288 156.572C159.85 156.231 159.269 156.06 158.544 156.06C157.882 156.06 157.312 156.22 156.832 156.54C156.352 156.849 155.984 157.292 155.728 157.868C155.482 158.433 155.36 159.116 155.36 159.916C155.36 160.705 155.482 161.388 155.728 161.964C155.984 162.54 156.352 162.983 156.832 163.292C157.312 163.601 157.882 163.756 158.544 163.756C159.269 163.756 159.85 163.601 160.288 163.292C160.725 162.972 161.013 162.529 161.152 161.964H163.52C163.306 163.127 162.768 164.039 161.904 164.7C161.04 165.361 159.925 165.692 158.56 165.692ZM164.98 165.5V157.468H166.9L167.092 158.956C167.295 158.604 167.54 158.305 167.828 158.06C168.116 157.804 168.447 157.612 168.82 157.484C169.204 157.345 169.625 157.276 170.084 157.276V159.564H169.364C169.044 159.564 168.745 159.601 168.468 159.676C168.201 159.74 167.967 159.857 167.764 160.028C167.561 160.199 167.407 160.428 167.3 160.716C167.193 161.004 167.14 161.367 167.14 161.804V165.5H164.98ZM174.923 165.692C174.112 165.692 173.392 165.521 172.763 165.18C172.144 164.828 171.659 164.343 171.307 163.724C170.965 163.095 170.795 162.375 170.795 161.564C170.795 160.721 170.965 159.98 171.307 159.34C171.648 158.7 172.128 158.199 172.747 157.836C173.376 157.463 174.101 157.276 174.923 157.276C175.723 157.276 176.421 157.452 177.019 157.804C177.616 158.145 178.08 158.615 178.411 159.212C178.752 159.809 178.923 160.487 178.923 161.244C178.923 161.351 178.917 161.473 178.907 161.612C178.907 161.74 178.901 161.873 178.891 162.012H172.331V160.684H176.731C176.709 160.183 176.528 159.783 176.187 159.484C175.845 159.175 175.429 159.02 174.939 159.02C174.565 159.02 174.224 159.105 173.915 159.276C173.605 159.447 173.36 159.703 173.179 160.044C173.008 160.375 172.923 160.796 172.923 161.308V161.772C172.923 162.209 173.003 162.593 173.163 162.924C173.333 163.244 173.568 163.495 173.867 163.676C174.165 163.847 174.512 163.932 174.907 163.932C175.301 163.932 175.627 163.847 175.883 163.676C176.149 163.505 176.352 163.281 176.491 163.004H178.683C178.533 163.516 178.283 163.975 177.931 164.38C177.579 164.785 177.147 165.105 176.635 165.34C176.123 165.575 175.552 165.692 174.923 165.692ZM183.076 165.692C182.404 165.692 181.849 165.585 181.412 165.372C180.974 165.148 180.649 164.855 180.436 164.492C180.222 164.119 180.116 163.713 180.116 163.276C180.116 162.775 180.238 162.343 180.484 161.98C180.74 161.607 181.124 161.313 181.636 161.1C182.148 160.887 182.788 160.78 183.556 160.78H185.556C185.556 160.385 185.502 160.06 185.396 159.804C185.289 159.548 185.124 159.356 184.9 159.228C184.676 159.1 184.377 159.036 184.004 159.036C183.598 159.036 183.252 159.127 182.964 159.308C182.686 159.479 182.51 159.745 182.436 160.108H180.34C180.404 159.532 180.596 159.036 180.916 158.62C181.246 158.193 181.678 157.863 182.212 157.628C182.745 157.393 183.348 157.276 184.02 157.276C184.777 157.276 185.433 157.404 185.988 157.66C186.542 157.905 186.969 158.273 187.268 158.764C187.566 159.244 187.716 159.831 187.716 160.524V165.5H185.892L185.652 164.268C185.534 164.481 185.396 164.673 185.236 164.844C185.076 165.015 184.889 165.164 184.676 165.292C184.462 165.42 184.222 165.516 183.956 165.58C183.689 165.655 183.396 165.692 183.076 165.692ZM183.588 164.028C183.865 164.028 184.11 163.98 184.324 163.884C184.548 163.777 184.74 163.639 184.9 163.468C185.06 163.287 185.182 163.084 185.268 162.86C185.364 162.625 185.428 162.38 185.46 162.124V162.108H183.812C183.481 162.108 183.209 162.151 182.996 162.236C182.793 162.311 182.644 162.423 182.548 162.572C182.452 162.721 182.404 162.892 182.404 163.084C182.404 163.287 182.452 163.457 182.548 163.596C182.644 163.735 182.782 163.841 182.964 163.916C183.145 163.991 183.353 164.028 183.588 164.028ZM192.917 165.5C192.363 165.5 191.872 165.415 191.445 165.244C191.019 165.063 190.688 164.769 190.453 164.364C190.219 163.948 190.101 163.383 190.101 162.668V159.276H188.725V157.468H190.101L190.357 155.276H192.261V157.468H194.389V159.276H192.261V162.7C192.261 163.063 192.341 163.313 192.501 163.452C192.661 163.591 192.933 163.66 193.317 163.66H194.357V165.5H192.917ZM199.541 165.692C198.73 165.692 198.01 165.521 197.381 165.18C196.762 164.828 196.277 164.343 195.925 163.724C195.583 163.095 195.413 162.375 195.413 161.564C195.413 160.721 195.583 159.98 195.925 159.34C196.266 158.7 196.746 158.199 197.365 157.836C197.994 157.463 198.719 157.276 199.541 157.276C200.341 157.276 201.039 157.452 201.637 157.804C202.234 158.145 202.698 158.615 203.029 159.212C203.37 159.809 203.541 160.487 203.541 161.244C203.541 161.351 203.535 161.473 203.525 161.612C203.525 161.74 203.519 161.873 203.509 162.012H196.949V160.684H201.349C201.327 160.183 201.146 159.783 200.805 159.484C200.463 159.175 200.047 159.02 199.557 159.02C199.183 159.02 198.842 159.105 198.533 159.276C198.223 159.447 197.978 159.703 197.797 160.044C197.626 160.375 197.541 160.796 197.541 161.308V161.772C197.541 162.209 197.621 162.593 197.781 162.924C197.951 163.244 198.186 163.495 198.485 163.676C198.783 163.847 199.13 163.932 199.525 163.932C199.919 163.932 200.245 163.847 200.501 163.676C200.767 163.505 200.97 163.281 201.109 163.004H203.301C203.151 163.516 202.901 163.975 202.549 164.38C202.197 164.785 201.765 165.105 201.253 165.34C200.741 165.575 200.17 165.692 199.541 165.692ZM208.558 165.692C207.832 165.692 207.176 165.511 206.59 165.148C206.003 164.785 205.544 164.289 205.214 163.66C204.883 163.02 204.718 162.295 204.718 161.484C204.718 160.673 204.883 159.953 205.214 159.324C205.555 158.684 206.019 158.183 206.606 157.82C207.203 157.457 207.87 157.276 208.606 157.276C209.192 157.276 209.699 157.383 210.126 157.596C210.563 157.809 210.915 158.113 211.182 158.508V153.98H213.342V165.5H211.422L211.182 164.396C211.022 164.62 210.819 164.833 210.574 165.036C210.339 165.239 210.056 165.399 209.726 165.516C209.395 165.633 209.006 165.692 208.558 165.692ZM209.07 163.804C209.496 163.804 209.87 163.708 210.19 163.516C210.52 163.313 210.776 163.036 210.958 162.684C211.15 162.332 211.246 161.932 211.246 161.484C211.246 161.025 211.15 160.62 210.958 160.268C210.776 159.916 210.52 159.644 210.19 159.452C209.87 159.26 209.496 159.164 209.07 159.164C208.664 159.164 208.296 159.26 207.966 159.452C207.635 159.644 207.374 159.916 207.182 160.268C207 160.62 206.91 161.02 206.91 161.468C206.91 161.927 207 162.332 207.182 162.684C207.374 163.036 207.635 163.313 207.966 163.516C208.296 163.708 208.664 163.804 209.07 163.804Z" fill="#A3AED0"/>
<path d="M114.425 193.379C113.275 193.379 112.225 193.17 111.275 192.754C110.342 192.337 109.592 191.704 109.025 190.854C108.458 190.004 108.158 188.929 108.125 187.629H111.425C111.442 188.179 111.567 188.679 111.8 189.129C112.033 189.562 112.375 189.912 112.825 190.179C113.275 190.429 113.808 190.554 114.425 190.554C115.008 190.554 115.508 190.437 115.925 190.204C116.342 189.97 116.658 189.662 116.875 189.279C117.092 188.895 117.2 188.454 117.2 187.954C117.2 187.37 117.05 186.879 116.75 186.479C116.467 186.079 116.067 185.779 115.55 185.579C115.05 185.362 114.475 185.254 113.825 185.254H112.525V182.479H113.825C114.625 182.479 115.3 182.295 115.85 181.929C116.417 181.545 116.7 180.979 116.7 180.229C116.7 179.595 116.492 179.087 116.075 178.704C115.675 178.32 115.117 178.129 114.4 178.129C113.617 178.129 113 178.362 112.55 178.829C112.117 179.295 111.875 179.87 111.825 180.554H108.525C108.575 179.454 108.85 178.512 109.35 177.729C109.85 176.929 110.533 176.32 111.4 175.904C112.267 175.487 113.267 175.279 114.4 175.279C115.617 175.279 116.642 175.495 117.475 175.929C118.308 176.345 118.933 176.912 119.35 177.629C119.783 178.329 120 179.104 120 179.954C120 180.62 119.875 181.22 119.625 181.754C119.375 182.27 119.033 182.704 118.6 183.054C118.183 183.404 117.717 183.662 117.2 183.829C117.85 183.945 118.417 184.195 118.9 184.579C119.4 184.962 119.783 185.454 120.05 186.054C120.333 186.637 120.475 187.312 120.475 188.079C120.475 189.029 120.242 189.912 119.775 190.729C119.308 191.529 118.625 192.17 117.725 192.654C116.825 193.137 115.725 193.379 114.425 193.379ZM122.593 193.079V190.604C123.643 189.754 124.659 188.904 125.643 188.054C126.643 187.204 127.543 186.362 128.343 185.529C129.143 184.679 129.776 183.854 130.243 183.054C130.709 182.254 130.943 181.479 130.943 180.729C130.943 180.262 130.851 179.837 130.668 179.454C130.501 179.054 130.243 178.737 129.893 178.504C129.543 178.254 129.084 178.129 128.518 178.129C127.934 178.129 127.443 178.262 127.043 178.529C126.659 178.795 126.368 179.154 126.168 179.604C125.968 180.037 125.868 180.529 125.868 181.079H122.593C122.643 179.795 122.934 178.72 123.468 177.854C124.001 176.987 124.709 176.345 125.593 175.929C126.493 175.495 127.501 175.279 128.618 175.279C129.834 175.279 130.868 175.512 131.718 175.979C132.568 176.429 133.209 177.045 133.643 177.829C134.093 178.612 134.318 179.512 134.318 180.529C134.318 181.295 134.176 182.045 133.893 182.779C133.609 183.512 133.226 184.229 132.743 184.929C132.259 185.612 131.709 186.27 131.093 186.904C130.493 187.537 129.859 188.145 129.193 188.729C128.543 189.295 127.901 189.829 127.268 190.329H134.718V193.079H122.593ZM138.726 193.079V179.454L135.801 180.129V177.504L140.151 175.579H142.201V193.079H138.726Z" fill="#1B2559"/>
</g>
<circle cx="61" cy="172" r="28" fill="#F4F7FE"/>
<g clip-path="url(#clip0_372_4530)">
<path d="M74.6315 168.04H68.0768L62.0832 159.063C61.8232 158.68 61.3853 158.488 60.9474 158.488C60.5096 158.488 60.0717 158.68 59.8117 159.077L53.8181 168.04H47.2634C46.5108 168.04 45.895 168.656 45.895 169.408C45.895 169.531 45.9087 169.654 45.9498 169.778L49.4255 182.463C49.7402 183.612 50.7939 184.461 52.0528 184.461H69.8421C71.101 184.461 72.1547 183.612 72.4831 182.463L75.9588 169.778L75.9999 169.408C75.9999 168.656 75.3841 168.04 74.6315 168.04ZM60.9474 162.292L64.779 168.04H57.1159L60.9474 162.292ZM69.8421 181.724L52.0665 181.737L49.056 170.777H72.8526L69.8421 181.724ZM60.9474 173.513C59.4422 173.513 58.2106 174.745 58.2106 176.25C58.2106 177.755 59.4422 178.987 60.9474 178.987C62.4527 178.987 63.6843 177.755 63.6843 176.25C63.6843 174.745 62.4527 173.513 60.9474 173.513Z" fill="#4318FF"/>
</g>
<g filter="url(#filter2_d_372_4530)">
<rect x="16" y="230.5" width="257" height="97" rx="20" fill="white"/>
<path d="M110.304 267.5V258.848H107.406V257.7H114.616V258.848H111.704V267.5H110.304ZM116.928 267.668C116.349 267.668 115.869 267.57 115.486 267.374C115.103 267.178 114.819 266.917 114.632 266.59C114.445 266.254 114.352 265.895 114.352 265.512C114.352 265.045 114.473 264.649 114.716 264.322C114.959 263.986 115.304 263.729 115.752 263.552C116.2 263.375 116.737 263.286 117.362 263.286H119.196C119.196 262.875 119.135 262.535 119.014 262.264C118.893 261.993 118.711 261.793 118.468 261.662C118.235 261.522 117.936 261.452 117.572 261.452C117.152 261.452 116.793 261.555 116.494 261.76C116.195 261.956 116.009 262.25 115.934 262.642H114.534C114.59 262.147 114.758 261.727 115.038 261.382C115.327 261.027 115.696 260.757 116.144 260.57C116.592 260.374 117.068 260.276 117.572 260.276C118.235 260.276 118.79 260.393 119.238 260.626C119.686 260.859 120.022 261.191 120.246 261.62C120.479 262.04 120.596 262.544 120.596 263.132V267.5H119.378L119.266 266.31C119.163 266.497 119.042 266.674 118.902 266.842C118.762 267.01 118.594 267.155 118.398 267.276C118.211 267.397 117.992 267.491 117.74 267.556C117.497 267.631 117.227 267.668 116.928 267.668ZM117.194 266.534C117.493 266.534 117.763 266.473 118.006 266.352C118.249 266.231 118.454 266.067 118.622 265.862C118.799 265.647 118.93 265.409 119.014 265.148C119.107 264.877 119.159 264.602 119.168 264.322V264.28H117.502C117.101 264.28 116.774 264.331 116.522 264.434C116.279 264.527 116.102 264.658 115.99 264.826C115.878 264.994 115.822 265.19 115.822 265.414C115.822 265.647 115.873 265.848 115.976 266.016C116.088 266.175 116.247 266.301 116.452 266.394C116.657 266.487 116.905 266.534 117.194 266.534ZM124.833 267.668C124.236 267.668 123.713 267.57 123.265 267.374C122.817 267.178 122.462 266.903 122.201 266.548C121.94 266.193 121.781 265.778 121.725 265.302H123.153C123.2 265.526 123.288 265.731 123.419 265.918C123.559 266.105 123.746 266.254 123.979 266.366C124.222 266.478 124.506 266.534 124.833 266.534C125.141 266.534 125.393 266.492 125.589 266.408C125.794 266.315 125.944 266.193 126.037 266.044C126.13 265.885 126.177 265.717 126.177 265.54C126.177 265.279 126.112 265.083 125.981 264.952C125.86 264.812 125.673 264.705 125.421 264.63C125.178 264.546 124.884 264.471 124.539 264.406C124.212 264.35 123.895 264.275 123.587 264.182C123.288 264.079 123.018 263.953 122.775 263.804C122.542 263.655 122.355 263.468 122.215 263.244C122.075 263.011 122.005 262.726 122.005 262.39C122.005 261.989 122.112 261.629 122.327 261.312C122.542 260.985 122.845 260.733 123.237 260.556C123.638 260.369 124.11 260.276 124.651 260.276C125.435 260.276 126.065 260.463 126.541 260.836C127.017 261.209 127.297 261.737 127.381 262.418H126.023C125.986 262.101 125.846 261.858 125.603 261.69C125.36 261.513 125.038 261.424 124.637 261.424C124.236 261.424 123.928 261.503 123.713 261.662C123.498 261.821 123.391 262.031 123.391 262.292C123.391 262.46 123.452 262.609 123.573 262.74C123.694 262.871 123.872 262.983 124.105 263.076C124.348 263.16 124.642 263.239 124.987 263.314C125.482 263.407 125.925 263.524 126.317 263.664C126.709 263.804 127.022 264.009 127.255 264.28C127.488 264.551 127.605 264.938 127.605 265.442C127.614 265.881 127.502 266.268 127.269 266.604C127.045 266.94 126.723 267.201 126.303 267.388C125.892 267.575 125.402 267.668 124.833 267.668ZM133.411 267.5L130.163 263.636L133.103 260.444H134.797L131.297 264.182V263.132L135.175 267.5H133.411ZM128.973 267.5V257.42H130.373V267.5H128.973ZM138.423 267.668C137.826 267.668 137.303 267.57 136.855 267.374C136.407 267.178 136.053 266.903 135.791 266.548C135.53 266.193 135.371 265.778 135.315 265.302H136.743C136.79 265.526 136.879 265.731 137.009 265.918C137.149 266.105 137.336 266.254 137.569 266.366C137.812 266.478 138.097 266.534 138.423 266.534C138.731 266.534 138.983 266.492 139.179 266.408C139.385 266.315 139.534 266.193 139.627 266.044C139.721 265.885 139.767 265.717 139.767 265.54C139.767 265.279 139.702 265.083 139.571 264.952C139.45 264.812 139.263 264.705 139.011 264.63C138.769 264.546 138.475 264.471 138.129 264.406C137.803 264.35 137.485 264.275 137.177 264.182C136.879 264.079 136.608 263.953 136.365 263.804C136.132 263.655 135.945 263.468 135.805 263.244C135.665 263.011 135.595 262.726 135.595 262.39C135.595 261.989 135.703 261.629 135.917 261.312C136.132 260.985 136.435 260.733 136.827 260.556C137.229 260.369 137.7 260.276 138.241 260.276C139.025 260.276 139.655 260.463 140.131 260.836C140.607 261.209 140.887 261.737 140.971 262.418H139.613C139.576 262.101 139.436 261.858 139.193 261.69C138.951 261.513 138.629 261.424 138.227 261.424C137.826 261.424 137.518 261.503 137.303 261.662C137.089 261.821 136.981 262.031 136.981 262.292C136.981 262.46 137.042 262.609 137.163 262.74C137.285 262.871 137.462 262.983 137.695 263.076C137.938 263.16 138.232 263.239 138.577 263.314C139.072 263.407 139.515 263.524 139.907 263.664C140.299 263.804 140.612 264.009 140.845 264.28C141.079 264.551 141.195 264.938 141.195 265.442C141.205 265.881 141.093 266.268 140.859 266.604C140.635 266.94 140.313 267.201 139.893 267.388C139.483 267.575 138.993 267.668 138.423 267.668ZM150.234 267.668C149.272 267.668 148.442 267.458 147.742 267.038C147.051 266.609 146.514 266.016 146.132 265.26C145.758 264.495 145.572 263.608 145.572 262.6C145.572 261.601 145.758 260.719 146.132 259.954C146.514 259.189 147.051 258.596 147.742 258.176C148.442 257.747 149.272 257.532 150.234 257.532C151.382 257.532 152.31 257.807 153.02 258.358C153.738 258.909 154.196 259.683 154.392 260.682H152.852C152.712 260.103 152.422 259.641 151.984 259.296C151.554 258.951 150.971 258.778 150.234 258.778C149.571 258.778 148.997 258.932 148.512 259.24C148.026 259.548 147.653 259.987 147.392 260.556C147.13 261.125 147 261.807 147 262.6C147 263.393 147.13 264.079 147.392 264.658C147.653 265.227 148.026 265.666 148.512 265.974C148.997 266.273 149.571 266.422 150.234 266.422C150.971 266.422 151.554 266.259 151.984 265.932C152.422 265.596 152.712 265.143 152.852 264.574H154.392C154.196 265.545 153.738 266.305 153.02 266.856C152.31 267.397 151.382 267.668 150.234 267.668ZM158.937 267.668C158.274 267.668 157.677 267.514 157.145 267.206C156.622 266.898 156.207 266.469 155.899 265.918C155.6 265.358 155.451 264.714 155.451 263.986C155.451 263.239 155.605 262.591 155.913 262.04C156.221 261.48 156.641 261.046 157.173 260.738C157.705 260.43 158.302 260.276 158.965 260.276C159.637 260.276 160.234 260.43 160.757 260.738C161.279 261.046 161.69 261.475 161.989 262.026C162.297 262.577 162.451 263.225 162.451 263.972C162.451 264.719 162.297 265.367 161.989 265.918C161.69 266.469 161.275 266.898 160.743 267.206C160.211 267.514 159.609 267.668 158.937 267.668ZM158.937 266.464C159.319 266.464 159.665 266.371 159.973 266.184C160.29 265.997 160.542 265.722 160.729 265.358C160.925 264.985 161.023 264.523 161.023 263.972C161.023 263.421 160.929 262.964 160.743 262.6C160.556 262.227 160.304 261.947 159.987 261.76C159.679 261.573 159.338 261.48 158.965 261.48C158.591 261.48 158.246 261.573 157.929 261.76C157.611 261.947 157.355 262.227 157.159 262.6C156.972 262.964 156.879 263.421 156.879 263.972C156.879 264.523 156.972 264.985 157.159 265.358C157.355 265.722 157.607 265.997 157.915 266.184C158.232 266.371 158.573 266.464 158.937 266.464ZM163.817 267.5V260.444H165.077L165.175 261.438C165.399 261.074 165.698 260.789 166.071 260.584C166.445 260.379 166.865 260.276 167.331 260.276C167.686 260.276 168.008 260.327 168.297 260.43C168.587 260.523 168.843 260.668 169.067 260.864C169.291 261.06 169.473 261.303 169.613 261.592C169.865 261.181 170.201 260.859 170.621 260.626C171.051 260.393 171.503 260.276 171.979 260.276C172.549 260.276 173.039 260.393 173.449 260.626C173.86 260.85 174.173 261.191 174.387 261.648C174.602 262.096 174.709 262.656 174.709 263.328V267.5H173.323V263.468C173.323 262.815 173.188 262.32 172.917 261.984C172.656 261.648 172.269 261.48 171.755 261.48C171.41 261.48 171.102 261.569 170.831 261.746C170.561 261.923 170.346 262.18 170.187 262.516C170.038 262.852 169.963 263.263 169.963 263.748V267.5H168.563V263.468C168.563 262.815 168.428 262.32 168.157 261.984C167.896 261.648 167.509 261.48 166.995 261.48C166.669 261.48 166.37 261.569 166.099 261.746C165.829 261.923 165.614 262.18 165.455 262.516C165.297 262.852 165.217 263.263 165.217 263.748V267.5H163.817ZM176.239 270.58V260.444H177.499L177.639 261.536C177.788 261.321 177.975 261.121 178.199 260.934C178.423 260.738 178.689 260.579 178.997 260.458C179.314 260.337 179.683 260.276 180.103 260.276C180.775 260.276 181.363 260.439 181.867 260.766C182.38 261.093 182.777 261.536 183.057 262.096C183.346 262.647 183.491 263.277 183.491 263.986C183.491 264.695 183.346 265.33 183.057 265.89C182.767 266.441 182.366 266.875 181.853 267.192C181.349 267.509 180.761 267.668 180.089 267.668C179.538 267.668 179.053 267.561 178.633 267.346C178.213 267.122 177.881 266.814 177.639 266.422V270.58H176.239ZM179.865 266.45C180.294 266.45 180.672 266.347 180.999 266.142C181.335 265.937 181.596 265.647 181.783 265.274C181.979 264.901 182.077 264.467 182.077 263.972C182.077 263.477 181.979 263.048 181.783 262.684C181.596 262.311 181.335 262.021 180.999 261.816C180.672 261.601 180.294 261.494 179.865 261.494C179.426 261.494 179.039 261.601 178.703 261.816C178.376 262.021 178.119 262.311 177.933 262.684C177.746 263.048 177.653 263.477 177.653 263.972C177.653 264.467 177.746 264.901 177.933 265.274C178.119 265.647 178.376 265.937 178.703 266.142C179.039 266.347 179.426 266.45 179.865 266.45ZM184.845 267.5V257.42H186.245V267.5H184.845ZM191.08 267.668C190.408 267.668 189.81 267.514 189.288 267.206C188.765 266.898 188.354 266.469 188.056 265.918C187.766 265.367 187.622 264.728 187.622 264C187.622 263.253 187.766 262.605 188.056 262.054C188.354 261.494 188.765 261.06 189.288 260.752C189.81 260.435 190.417 260.276 191.108 260.276C191.798 260.276 192.391 260.43 192.886 260.738C193.38 261.046 193.763 261.457 194.034 261.97C194.304 262.474 194.44 263.034 194.44 263.65C194.44 263.743 194.435 263.846 194.426 263.958C194.426 264.061 194.421 264.177 194.412 264.308H188.644V263.314H193.04C193.012 262.726 192.816 262.269 192.452 261.942C192.088 261.606 191.635 261.438 191.094 261.438C190.711 261.438 190.361 261.527 190.044 261.704C189.726 261.872 189.47 262.124 189.274 262.46C189.087 262.787 188.994 263.202 188.994 263.706V264.098C188.994 264.621 189.087 265.064 189.274 265.428C189.47 265.783 189.726 266.053 190.044 266.24C190.361 266.417 190.706 266.506 191.08 266.506C191.528 266.506 191.896 266.408 192.186 266.212C192.475 266.016 192.69 265.75 192.83 265.414H194.23C194.108 265.843 193.903 266.231 193.614 266.576C193.324 266.912 192.965 267.178 192.536 267.374C192.116 267.57 191.63 267.668 191.08 267.668ZM198.436 267.5C197.988 267.5 197.6 267.43 197.274 267.29C196.947 267.15 196.695 266.917 196.518 266.59C196.34 266.263 196.252 265.82 196.252 265.26V261.634H195.034V260.444H196.252L196.42 258.68H197.652V260.444H199.654V261.634H197.652V265.274C197.652 265.675 197.736 265.951 197.904 266.1C198.072 266.24 198.361 266.31 198.772 266.31H199.584V267.5H198.436ZM203.918 267.668C203.246 267.668 202.649 267.514 202.126 267.206C201.603 266.898 201.193 266.469 200.894 265.918C200.605 265.367 200.46 264.728 200.46 264C200.46 263.253 200.605 262.605 200.894 262.054C201.193 261.494 201.603 261.06 202.126 260.752C202.649 260.435 203.255 260.276 203.946 260.276C204.637 260.276 205.229 260.43 205.724 260.738C206.219 261.046 206.601 261.457 206.872 261.97C207.143 262.474 207.278 263.034 207.278 263.65C207.278 263.743 207.273 263.846 207.264 263.958C207.264 264.061 207.259 264.177 207.25 264.308H201.482V263.314H205.878C205.85 262.726 205.654 262.269 205.29 261.942C204.926 261.606 204.473 261.438 203.932 261.438C203.549 261.438 203.199 261.527 202.882 261.704C202.565 261.872 202.308 262.124 202.112 262.46C201.925 262.787 201.832 263.202 201.832 263.706V264.098C201.832 264.621 201.925 265.064 202.112 265.428C202.308 265.783 202.565 266.053 202.882 266.24C203.199 266.417 203.545 266.506 203.918 266.506C204.366 266.506 204.735 266.408 205.024 266.212C205.313 266.016 205.528 265.75 205.668 265.414H207.068C206.947 265.843 206.741 266.231 206.452 266.576C206.163 266.912 205.803 267.178 205.374 267.374C204.954 267.57 204.469 267.668 203.918 267.668ZM211.689 267.668C211.017 267.668 210.425 267.509 209.911 267.192C209.398 266.865 208.997 266.427 208.707 265.876C208.427 265.316 208.287 264.681 208.287 263.972C208.287 263.253 208.427 262.619 208.707 262.068C208.997 261.517 209.398 261.083 209.911 260.766C210.434 260.439 211.031 260.276 211.703 260.276C212.254 260.276 212.739 260.388 213.159 260.612C213.579 260.827 213.906 261.135 214.139 261.536V257.42H215.539V267.5H214.279L214.139 266.408C213.999 266.623 213.817 266.828 213.593 267.024C213.369 267.211 213.099 267.365 212.781 267.486C212.464 267.607 212.1 267.668 211.689 267.668ZM211.913 266.45C212.352 266.45 212.739 266.347 213.075 266.142C213.411 265.937 213.668 265.647 213.845 265.274C214.032 264.901 214.125 264.467 214.125 263.972C214.125 263.477 214.032 263.048 213.845 262.684C213.668 262.311 213.411 262.021 213.075 261.816C212.739 261.601 212.352 261.494 211.913 261.494C211.493 261.494 211.115 261.601 210.779 261.816C210.443 262.021 210.182 262.311 209.995 262.684C209.809 263.048 209.715 263.477 209.715 263.972C209.715 264.467 209.809 264.901 209.995 265.274C210.182 265.647 210.443 265.937 210.779 266.142C211.115 266.347 211.493 266.45 211.913 266.45Z" fill="#6276B3"/>
<path d="M108.2 298.5V296.025C109.25 295.175 110.267 294.325 111.25 293.475C112.25 292.625 113.15 291.783 113.95 290.95C114.75 290.1 115.383 289.275 115.85 288.475C116.317 287.675 116.55 286.9 116.55 286.15C116.55 285.683 116.458 285.258 116.275 284.875C116.108 284.475 115.85 284.158 115.5 283.925C115.15 283.675 114.692 283.55 114.125 283.55C113.542 283.55 113.05 283.683 112.65 283.95C112.267 284.217 111.975 284.575 111.775 285.025C111.575 285.458 111.475 285.95 111.475 286.5H108.2C108.25 285.217 108.542 284.142 109.075 283.275C109.608 282.408 110.317 281.767 111.2 281.35C112.1 280.917 113.108 280.7 114.225 280.7C115.442 280.7 116.475 280.933 117.325 281.4C118.175 281.85 118.817 282.467 119.25 283.25C119.7 284.033 119.925 284.933 119.925 285.95C119.925 286.717 119.783 287.467 119.5 288.2C119.217 288.933 118.833 289.65 118.35 290.35C117.867 291.033 117.317 291.692 116.7 292.325C116.1 292.958 115.467 293.567 114.8 294.15C114.15 294.717 113.508 295.25 112.875 295.75H120.325V298.5H108.2ZM129.536 298.8C127.919 298.8 126.527 298.417 125.361 297.65C124.194 296.883 123.294 295.825 122.661 294.475C122.044 293.108 121.736 291.533 121.736 289.75C121.736 287.967 122.044 286.4 122.661 285.05C123.294 283.683 124.186 282.617 125.336 281.85C126.502 281.083 127.902 280.7 129.536 280.7C131.152 280.7 132.536 281.083 133.686 281.85C134.852 282.617 135.744 283.683 136.361 285.05C136.994 286.4 137.311 287.967 137.311 289.75C137.311 291.533 136.994 293.108 136.361 294.475C135.744 295.825 134.852 296.883 133.686 297.65C132.536 298.417 131.152 298.8 129.536 298.8ZM129.536 295.775C130.386 295.775 131.136 295.533 131.786 295.05C132.452 294.55 132.969 293.85 133.336 292.95C133.702 292.05 133.886 290.983 133.886 289.75C133.886 288.5 133.702 287.433 133.336 286.55C132.969 285.65 132.452 284.958 131.786 284.475C131.136 283.992 130.386 283.75 129.536 283.75C128.686 283.75 127.927 283.992 127.261 284.475C126.611 284.958 126.102 285.65 125.736 286.55C125.369 287.433 125.186 288.5 125.186 289.75C125.186 290.983 125.369 292.05 125.736 292.95C126.102 293.85 126.611 294.55 127.261 295.05C127.927 295.533 128.686 295.775 129.536 295.775ZM141.509 298.5V284.875L138.584 285.55V282.925L142.934 281H144.984V298.5H141.509Z" fill="#1B2559"/>
<circle cx="61" cy="278.5" r="28" fill="#F4F7FE"/>
<g clip-path="url(#clip1_372_4530)">
<path d="M53.2839 274.813H53.5576C54.6113 274.813 55.4734 275.676 55.4734 276.729V286.308C55.4734 287.362 54.6113 288.224 53.5576 288.224H53.2839C52.2303 288.224 51.3682 287.362 51.3682 286.308V276.729C51.3682 275.676 52.2303 274.813 53.2839 274.813ZM60.947 269.066C62.0007 269.066 62.8627 269.928 62.8627 270.982V286.308C62.8627 287.362 62.0007 288.224 60.947 288.224C59.8933 288.224 59.0312 287.362 59.0312 286.308V270.982C59.0312 269.928 59.8933 269.066 60.947 269.066ZM68.61 280.013C69.6637 280.013 70.5258 280.875 70.5258 281.929V286.308C70.5258 287.362 69.6637 288.224 68.61 288.224C67.5564 288.224 66.6943 287.362 66.6943 286.308V281.929C66.6943 280.875 67.5564 280.013 68.61 280.013Z" fill="#4318FF"/>
</g>
</g>
<defs>
<filter id="filter0_d_372_4530" x="0" y="0.5" width="297" height="137" filterUnits="userSpaceOnUse" color-interpolation-filters="sRGB">
<feFlood flood-opacity="0" result="BackgroundImageFix"/>
<feColorMatrix in="SourceAlpha" type="matrix" values="0 0 0 0 0 0 0 0 0 0 0 0 0 0 0 0 0 0 127 0" result="hardAlpha"/>
<feOffset dx="4" dy="4"/>
<feGaussianBlur stdDeviation="10"/>
<feComposite in2="hardAlpha" operator="out"/>
<feColorMatrix type="matrix" values="0 0 0 0 0.812918 0 0 0 0 0.625833 0 0 0 0 1 0 0 0 0.22 0"/>
<feBlend mode="normal" in2="BackgroundImageFix" result="effect1_dropShadow_372_4530"/>
<feBlend mode="normal" in="SourceGraphic" in2="effect1_dropShadow_372_4530" result="shape"/>
</filter>
<filter id="filter1_d_372_4530" x="0" y="107.5" width="297" height="137" filterUnits="userSpaceOnUse" color-interpolation-filters="sRGB">
<feFlood flood-opacity="0" result="BackgroundImageFix"/>
<feColorMatrix in="SourceAlpha" type="matrix" values="0 0 0 0 0 0 0 0 0 0 0 0 0 0 0 0 0 0 127 0" result="hardAlpha"/>
<feOffset dx="4" dy="4"/>
<feGaussianBlur stdDeviation="10"/>
<feComposite in2="hardAlpha" operator="out"/>
<feColorMatrix type="matrix" values="0 0 0 0 0.812918 0 0 0 0 0.625833 0 0 0 0 1 0 0 0 0.22 0"/>
<feBlend mode="normal" in2="BackgroundImageFix" result="effect1_dropShadow_372_4530"/>
<feBlend mode="normal" in="SourceGraphic" in2="effect1_dropShadow_372_4530" result="shape"/>
</filter>
<filter id="filter2_d_372_4530" x="0" y="214.5" width="297" height="137" filterUnits="userSpaceOnUse" color-interpolation-filters="sRGB">
<feFlood flood-opacity="0" result="BackgroundImageFix"/>
<feColorMatrix in="SourceAlpha" type="matrix" values="0 0 0 0 0 0 0 0 0 0 0 0 0 0 0 0 0 0 127 0" result="hardAlpha"/>
<feOffset dx="4" dy="4"/>
<feGaussianBlur stdDeviation="10"/>
<feComposite in2="hardAlpha" operator="out"/>
<feColorMatrix type="matrix" values="0 0 0 0 0.812918 0 0 0 0 0.625833 0 0 0 0 1 0 0 0 0.22 0"/>
<feBlend mode="normal" in2="BackgroundImageFix" result="effect1_dropShadow_372_4530"/>
<feBlend mode="normal" in="SourceGraphic" in2="effect1_dropShadow_372_4530" result="shape"/>
</filter>
<clipPath id="clip0_372_4530">
<rect width="32.8417" height="32.8417" fill="white" transform="translate(44.5264 155.724)"/>
</clipPath>
<clipPath id="clip1_372_4530">
<rect width="32.8417" height="32.8417" fill="white" transform="translate(44.5264 262.224)"/>
</clipPath>
</defs>
</svg>
