<svg width="397" height="352" viewBox="0 0 397 352" fill="none" xmlns="http://www.w3.org/2000/svg">
<g filter="url(#filter0_d_372_4537)">
<rect x="20" y="16" width="357" height="312" rx="20" fill="white"/>
<path d="M66.96 126.192C66.1493 126.192 65.424 126.053 64.784 125.776C64.144 125.499 63.6427 125.093 63.28 124.56C62.9173 124.027 62.7253 123.381 62.704 122.624H64.992C65.0027 122.955 65.088 123.253 65.248 123.52C65.408 123.787 65.632 124 65.92 124.16C66.208 124.309 66.5493 124.384 66.944 124.384C67.2853 124.384 67.5787 124.331 67.824 124.224C68.08 124.107 68.2773 123.947 68.416 123.744C68.5547 123.541 68.624 123.301 68.624 123.024C68.624 122.704 68.544 122.437 68.384 122.224C68.2347 122.011 68.0213 121.829 67.744 121.68C67.4667 121.52 67.1467 121.381 66.784 121.264C66.432 121.136 66.0587 121.008 65.664 120.88C64.7893 120.592 64.1173 120.208 63.648 119.728C63.1893 119.248 62.96 118.613 62.96 117.824C62.96 117.152 63.12 116.576 63.44 116.096C63.7707 115.616 64.2187 115.248 64.784 114.992C65.36 114.736 66.0213 114.608 66.768 114.608C67.5253 114.608 68.1867 114.741 68.752 115.008C69.328 115.264 69.7813 115.637 70.112 116.128C70.4427 116.619 70.6187 117.195 70.64 117.856H68.32C68.32 117.611 68.2507 117.381 68.112 117.168C67.984 116.944 67.8027 116.768 67.568 116.64C67.3333 116.501 67.056 116.432 66.736 116.432C66.448 116.421 66.192 116.464 65.968 116.56C65.744 116.656 65.5627 116.8 65.424 116.992C65.296 117.173 65.232 117.403 65.232 117.68C65.232 117.947 65.296 118.171 65.424 118.352C65.552 118.533 65.7333 118.693 65.968 118.832C66.2133 118.96 66.4907 119.083 66.8 119.2C67.12 119.307 67.4667 119.419 67.84 119.536C68.4053 119.728 68.9173 119.957 69.376 120.224C69.8453 120.48 70.2187 120.816 70.496 121.232C70.7733 121.648 70.912 122.197 70.912 122.88C70.912 123.467 70.7573 124.011 70.448 124.512C70.1493 125.013 69.7067 125.419 69.12 125.728C68.5333 126.037 67.8133 126.192 66.96 126.192ZM75.3686 126.192C74.718 126.192 74.158 126.059 73.6886 125.792C73.23 125.515 72.878 125.109 72.6326 124.576C72.398 124.043 72.2806 123.387 72.2806 122.608V117.968H74.4246V122.384C74.4246 123.035 74.558 123.531 74.8246 123.872C75.102 124.203 75.5233 124.368 76.0886 124.368C76.4513 124.368 76.7713 124.288 77.0486 124.128C77.3366 123.957 77.5606 123.712 77.7206 123.392C77.8806 123.072 77.9606 122.683 77.9606 122.224V117.968H80.1206V126H78.2166L78.0566 124.688C77.8113 125.147 77.4593 125.515 77.0006 125.792C76.5526 126.059 76.0086 126.192 75.3686 126.192ZM81.916 129.52V117.968H83.836L84.076 119.072C84.2467 118.837 84.4493 118.624 84.684 118.432C84.9187 118.229 85.196 118.069 85.516 117.952C85.8467 117.835 86.2307 117.776 86.668 117.776C87.4253 117.776 88.092 117.963 88.668 118.336C89.244 118.699 89.6973 119.2 90.028 119.84C90.3693 120.469 90.54 121.189 90.54 122C90.54 122.8 90.3693 123.52 90.028 124.16C89.6867 124.789 89.228 125.285 88.652 125.648C88.076 126.011 87.42 126.192 86.684 126.192C86.0867 126.192 85.5693 126.085 85.132 125.872C84.6947 125.648 84.3427 125.344 84.076 124.96V129.52H81.916ZM86.172 124.304C86.5987 124.304 86.972 124.208 87.292 124.016C87.6227 123.824 87.8787 123.552 88.06 123.2C88.252 122.848 88.348 122.448 88.348 122C88.348 121.541 88.252 121.136 88.06 120.784C87.8787 120.432 87.6227 120.16 87.292 119.968C86.972 119.765 86.5987 119.664 86.172 119.664C85.756 119.664 85.3827 119.765 85.052 119.968C84.7213 120.16 84.4653 120.432 84.284 120.784C84.1027 121.125 84.012 121.525 84.012 121.984C84.012 122.443 84.1027 122.848 84.284 123.2C84.4653 123.552 84.7213 123.824 85.052 124.016C85.3827 124.208 85.756 124.304 86.172 124.304ZM95.9524 126.192C95.1417 126.192 94.4217 126.021 93.7924 125.68C93.1737 125.328 92.6884 124.843 92.3364 124.224C91.995 123.595 91.8244 122.875 91.8244 122.064C91.8244 121.221 91.995 120.48 92.3364 119.84C92.6777 119.2 93.1577 118.699 93.7764 118.336C94.4057 117.963 95.131 117.776 95.9524 117.776C96.7524 117.776 97.451 117.952 98.0484 118.304C98.6457 118.645 99.1097 119.115 99.4404 119.712C99.7817 120.309 99.9524 120.987 99.9524 121.744C99.9524 121.851 99.947 121.973 99.9364 122.112C99.9364 122.24 99.931 122.373 99.9204 122.512H93.3604V121.184H97.7604C97.739 120.683 97.5577 120.283 97.2164 119.984C96.875 119.675 96.459 119.52 95.9684 119.52C95.595 119.52 95.2537 119.605 94.9444 119.776C94.635 119.947 94.3897 120.203 94.2084 120.544C94.0377 120.875 93.9524 121.296 93.9524 121.808V122.272C93.9524 122.709 94.0324 123.093 94.1924 123.424C94.363 123.744 94.5977 123.995 94.8964 124.176C95.195 124.347 95.5417 124.432 95.9364 124.432C96.331 124.432 96.6564 124.347 96.9124 124.176C97.179 124.005 97.3817 123.781 97.5204 123.504H99.7124C99.563 124.016 99.3124 124.475 98.9604 124.88C98.6084 125.285 98.1764 125.605 97.6644 125.84C97.1524 126.075 96.5817 126.192 95.9524 126.192ZM101.385 126V117.968H103.305L103.497 119.456C103.7 119.104 103.945 118.805 104.233 118.56C104.521 118.304 104.852 118.112 105.225 117.984C105.609 117.845 106.031 117.776 106.489 117.776V120.064H105.769C105.449 120.064 105.151 120.101 104.873 120.176C104.607 120.24 104.372 120.357 104.169 120.528C103.967 120.699 103.812 120.928 103.705 121.216C103.599 121.504 103.545 121.867 103.545 122.304V126H101.385ZM109.725 126L106.781 117.968H109.053L111.053 123.968L113.037 117.968H115.293L112.349 126H109.725ZM116.34 126V117.968H118.5V126H116.34ZM117.428 116.848C117.034 116.848 116.714 116.736 116.468 116.512C116.223 116.277 116.1 115.984 116.1 115.632C116.1 115.28 116.223 114.992 116.468 114.768C116.714 114.533 117.034 114.416 117.428 114.416C117.823 114.416 118.143 114.533 118.388 114.768C118.644 114.992 118.772 115.28 118.772 115.632C118.772 115.984 118.644 116.277 118.388 116.512C118.143 116.736 117.823 116.848 117.428 116.848ZM123.643 126.192C122.907 126.192 122.267 126.075 121.723 125.84C121.19 125.605 120.763 125.285 120.443 124.88C120.134 124.464 119.958 123.989 119.915 123.456H122.059C122.113 123.659 122.203 123.845 122.331 124.016C122.459 124.176 122.63 124.304 122.843 124.4C123.067 124.496 123.323 124.544 123.611 124.544C123.899 124.544 124.134 124.507 124.315 124.432C124.497 124.347 124.63 124.24 124.715 124.112C124.811 123.973 124.859 123.829 124.859 123.68C124.859 123.445 124.795 123.269 124.667 123.152C124.539 123.035 124.347 122.939 124.091 122.864C123.846 122.789 123.553 122.715 123.211 122.64C122.838 122.565 122.465 122.475 122.091 122.368C121.729 122.251 121.398 122.107 121.099 121.936C120.811 121.765 120.582 121.547 120.411 121.28C120.241 121.013 120.155 120.683 120.155 120.288C120.155 119.819 120.283 119.392 120.539 119.008C120.795 118.624 121.169 118.325 121.659 118.112C122.15 117.888 122.737 117.776 123.419 117.776C124.39 117.776 125.158 117.995 125.723 118.432C126.299 118.869 126.635 119.472 126.731 120.24H124.699C124.646 119.984 124.507 119.787 124.283 119.648C124.059 119.509 123.771 119.44 123.419 119.44C123.035 119.44 122.742 119.509 122.539 119.648C122.347 119.787 122.251 119.963 122.251 120.176C122.251 120.325 122.315 120.459 122.443 120.576C122.571 120.693 122.758 120.795 123.003 120.88C123.249 120.955 123.547 121.029 123.899 121.104C124.518 121.232 125.057 121.376 125.515 121.536C125.985 121.696 126.353 121.931 126.619 122.24C126.886 122.539 127.019 122.976 127.019 123.552C127.03 124.064 126.897 124.523 126.619 124.928C126.342 125.323 125.947 125.632 125.435 125.856C124.934 126.08 124.337 126.192 123.643 126.192ZM132.335 126.192C131.567 126.192 130.874 126.016 130.255 125.664C129.647 125.301 129.162 124.805 128.799 124.176C128.447 123.536 128.271 122.805 128.271 121.984C128.271 121.152 128.447 120.421 128.799 119.792C129.162 119.163 129.653 118.672 130.271 118.32C130.89 117.957 131.583 117.776 132.351 117.776C133.13 117.776 133.823 117.957 134.431 118.32C135.05 118.672 135.535 119.163 135.887 119.792C136.25 120.421 136.431 121.152 136.431 121.984C136.431 122.805 136.25 123.536 135.887 124.176C135.535 124.805 135.05 125.301 134.431 125.664C133.813 126.016 133.114 126.192 132.335 126.192ZM132.335 124.32C132.687 124.32 133.002 124.235 133.279 124.064C133.567 123.893 133.797 123.632 133.967 123.28C134.138 122.928 134.223 122.496 134.223 121.984C134.223 121.461 134.138 121.029 133.967 120.688C133.807 120.336 133.583 120.075 133.295 119.904C133.018 119.733 132.703 119.648 132.351 119.648C132.01 119.648 131.695 119.733 131.407 119.904C131.119 120.075 130.89 120.336 130.719 120.688C130.549 121.029 130.463 121.461 130.463 121.984C130.463 122.496 130.549 122.928 130.719 123.28C130.89 123.632 131.114 123.893 131.391 124.064C131.679 124.235 131.994 124.32 132.335 124.32ZM137.973 126V117.968H139.893L140.085 119.456C140.288 119.104 140.533 118.805 140.821 118.56C141.109 118.304 141.44 118.112 141.813 117.984C142.197 117.845 142.618 117.776 143.077 117.776V120.064H142.357C142.037 120.064 141.738 120.101 141.461 120.176C141.194 120.24 140.96 120.357 140.757 120.528C140.554 120.699 140.4 120.928 140.293 121.216C140.186 121.504 140.133 121.867 140.133 122.304V126H137.973ZM147.646 126V114.8H150.238L153.678 121.776L157.07 114.8H159.646V126H157.486V118.464L154.51 124.432H152.798L149.806 118.48V126H147.646ZM165.338 126.192C164.527 126.192 163.807 126.021 163.178 125.68C162.559 125.328 162.074 124.843 161.722 124.224C161.381 123.595 161.21 122.875 161.21 122.064C161.21 121.221 161.381 120.48 161.722 119.84C162.063 119.2 162.543 118.699 163.162 118.336C163.791 117.963 164.517 117.776 165.338 117.776C166.138 117.776 166.837 117.952 167.434 118.304C168.031 118.645 168.495 119.115 168.826 119.712C169.167 120.309 169.338 120.987 169.338 121.744C169.338 121.851 169.333 121.973 169.322 122.112C169.322 122.24 169.317 122.373 169.306 122.512H162.746V121.184H167.146C167.125 120.683 166.943 120.283 166.602 119.984C166.261 119.675 165.845 119.52 165.354 119.52C164.981 119.52 164.639 119.605 164.33 119.776C164.021 119.947 163.775 120.203 163.594 120.544C163.423 120.875 163.338 121.296 163.338 121.808V122.272C163.338 122.709 163.418 123.093 163.578 123.424C163.749 123.744 163.983 123.995 164.282 124.176C164.581 124.347 164.927 124.432 165.322 124.432C165.717 124.432 166.042 124.347 166.298 124.176C166.565 124.005 166.767 123.781 166.906 123.504H169.098C168.949 124.016 168.698 124.475 168.346 124.88C167.994 125.285 167.562 125.605 167.05 125.84C166.538 126.075 165.967 126.192 165.338 126.192ZM174.643 126.192C173.832 126.192 173.112 126.021 172.483 125.68C171.864 125.328 171.379 124.843 171.027 124.224C170.686 123.595 170.515 122.875 170.515 122.064C170.515 121.221 170.686 120.48 171.027 119.84C171.368 119.2 171.848 118.699 172.467 118.336C173.096 117.963 173.822 117.776 174.643 117.776C175.443 117.776 176.142 117.952 176.739 118.304C177.336 118.645 177.8 119.115 178.131 119.712C178.472 120.309 178.643 120.987 178.643 121.744C178.643 121.851 178.638 121.973 178.627 122.112C178.627 122.24 178.622 122.373 178.611 122.512H172.051V121.184H176.451C176.43 120.683 176.248 120.283 175.907 119.984C175.566 119.675 175.15 119.52 174.659 119.52C174.286 119.52 173.944 119.605 173.635 119.776C173.326 119.947 173.08 120.203 172.899 120.544C172.728 120.875 172.643 121.296 172.643 121.808V122.272C172.643 122.709 172.723 123.093 172.883 123.424C173.054 123.744 173.288 123.995 173.587 124.176C173.886 124.347 174.232 124.432 174.627 124.432C175.022 124.432 175.347 124.347 175.603 124.176C175.87 124.005 176.072 123.781 176.211 123.504H178.403C178.254 124.016 178.003 124.475 177.651 124.88C177.299 125.285 176.867 125.605 176.355 125.84C175.843 126.075 175.272 126.192 174.643 126.192ZM183.583 126C183.028 126 182.537 125.915 182.111 125.744C181.684 125.563 181.353 125.269 181.119 124.864C180.884 124.448 180.767 123.883 180.767 123.168V119.776H179.391V117.968H180.767L181.023 115.776H182.927V117.968H185.055V119.776H182.927V123.2C182.927 123.563 183.007 123.813 183.167 123.952C183.327 124.091 183.599 124.16 183.983 124.16H185.023V126H183.583ZM186.585 126V117.968H188.745V126H186.585ZM187.673 116.848C187.279 116.848 186.959 116.736 186.713 116.512C186.468 116.277 186.345 115.984 186.345 115.632C186.345 115.28 186.468 114.992 186.713 114.768C186.959 114.533 187.279 114.416 187.673 114.416C188.068 114.416 188.388 114.533 188.633 114.768C188.889 114.992 189.017 115.28 189.017 115.632C189.017 115.984 188.889 116.277 188.633 116.512C188.388 116.736 188.068 116.848 187.673 116.848ZM190.592 126V117.968H192.496L192.656 119.28C192.902 118.821 193.248 118.459 193.696 118.192C194.155 117.915 194.699 117.776 195.328 117.776C196 117.776 196.566 117.915 197.024 118.192C197.483 118.469 197.83 118.875 198.064 119.408C198.31 119.941 198.432 120.603 198.432 121.392V126H196.288V121.584C196.288 120.944 196.15 120.453 195.872 120.112C195.606 119.771 195.19 119.6 194.624 119.6C194.262 119.6 193.936 119.685 193.648 119.856C193.371 120.027 193.152 120.272 192.992 120.592C192.832 120.901 192.752 121.285 192.752 121.744V126H190.592ZM203.588 129.712C202.82 129.712 202.148 129.616 201.572 129.424C201.006 129.243 200.564 128.96 200.244 128.576C199.934 128.203 199.78 127.739 199.78 127.184C199.78 126.811 199.876 126.459 200.068 126.128C200.26 125.797 200.537 125.499 200.9 125.232C201.273 124.955 201.737 124.72 202.292 124.528L203.108 125.6C202.617 125.76 202.26 125.957 202.036 126.192C201.822 126.437 201.716 126.693 201.716 126.96C201.716 127.205 201.796 127.413 201.956 127.584C202.126 127.755 202.35 127.877 202.628 127.952C202.916 128.037 203.236 128.08 203.588 128.08C203.918 128.08 204.212 128.037 204.468 127.952C204.724 127.867 204.921 127.739 205.06 127.568C205.209 127.408 205.284 127.216 205.284 126.992C205.284 126.704 205.182 126.469 204.98 126.288C204.777 126.107 204.372 125.995 203.764 125.952C203.22 125.909 202.734 125.851 202.308 125.776C201.892 125.691 201.524 125.595 201.204 125.488C200.894 125.371 200.628 125.248 200.404 125.12C200.18 124.981 199.998 124.843 199.86 124.704V124.336L201.572 122.48L203.108 122.976L201.108 124.976L201.732 123.904C201.838 123.979 201.945 124.048 202.052 124.112C202.169 124.165 202.313 124.213 202.484 124.256C202.654 124.299 202.878 124.341 203.156 124.384C203.433 124.427 203.78 124.469 204.196 124.512C204.91 124.565 205.492 124.693 205.94 124.896C206.388 125.099 206.718 125.371 206.932 125.712C207.145 126.053 207.252 126.464 207.252 126.944C207.252 127.424 207.118 127.872 206.852 128.288C206.596 128.715 206.196 129.056 205.652 129.312C205.118 129.579 204.43 129.712 203.588 129.712ZM203.604 123.632C202.932 123.632 202.35 123.504 201.86 123.248C201.38 122.981 201.006 122.629 200.74 122.192C200.484 121.744 200.356 121.248 200.356 120.704C200.356 120.16 200.484 119.669 200.74 119.232C201.006 118.795 201.38 118.443 201.86 118.176C202.35 117.909 202.932 117.776 203.604 117.776C204.286 117.776 204.868 117.909 205.348 118.176C205.838 118.443 206.212 118.795 206.468 119.232C206.724 119.669 206.852 120.16 206.852 120.704C206.852 121.248 206.724 121.744 206.468 122.192C206.212 122.629 205.838 122.981 205.348 123.248C204.868 123.504 204.286 123.632 203.604 123.632ZM203.604 121.984C204.02 121.984 204.356 121.877 204.612 121.664C204.868 121.44 204.996 121.12 204.996 120.704C204.996 120.299 204.868 119.989 204.612 119.776C204.356 119.563 204.02 119.456 203.604 119.456C203.198 119.456 202.862 119.563 202.596 119.776C202.34 119.989 202.212 120.299 202.212 120.704C202.212 121.12 202.34 121.44 202.596 121.664C202.852 121.877 203.188 121.984 203.604 121.984ZM204.932 119.488L204.58 117.968H207.908V119.248L204.932 119.488Z" fill="#1B2559"/>
<path d="M66.08 145.144C65.352 145.144 64.724 144.964 64.196 144.604C63.676 144.236 63.276 143.728 62.996 143.08C62.716 142.424 62.576 141.664 62.576 140.8C62.576 139.936 62.716 139.18 62.996 138.532C63.276 137.876 63.676 137.368 64.196 137.008C64.724 136.64 65.352 136.456 66.08 136.456C66.816 136.456 67.44 136.64 67.952 137.008C68.472 137.368 68.872 137.876 69.152 138.532C69.44 139.18 69.584 139.936 69.584 140.8C69.584 141.664 69.44 142.424 69.152 143.08C68.872 143.728 68.472 144.236 67.952 144.604C67.44 144.964 66.816 145.144 66.08 145.144ZM66.08 144.076C66.52 144.076 66.908 143.944 67.244 143.68C67.588 143.416 67.856 143.04 68.048 142.552C68.248 142.064 68.348 141.48 68.348 140.8C68.348 140.112 68.248 139.528 68.048 139.048C67.856 138.56 67.588 138.188 67.244 137.932C66.908 137.668 66.52 137.536 66.08 137.536C65.64 137.536 65.248 137.668 64.904 137.932C64.56 138.188 64.288 138.56 64.088 139.048C63.896 139.528 63.8 140.112 63.8 140.8C63.8 141.48 63.896 142.064 64.088 142.552C64.288 143.04 64.56 143.416 64.904 143.68C65.248 143.944 65.64 144.076 66.08 144.076ZM71.8845 145V137.956L70.3125 138.412V137.476L72.3285 136.6H73.1085V145H71.8845ZM75.0744 145.06C74.8504 145.06 74.6624 144.988 74.5104 144.844C74.3664 144.692 74.2944 144.512 74.2944 144.304C74.2944 144.088 74.3664 143.908 74.5104 143.764C74.6624 143.612 74.8504 143.536 75.0744 143.536C75.3064 143.536 75.4944 143.612 75.6384 143.764C75.7824 143.908 75.8544 144.088 75.8544 144.304C75.8544 144.512 75.7824 144.692 75.6384 144.844C75.4944 144.988 75.3064 145.06 75.0744 145.06ZM75.0744 140.224C74.8504 140.224 74.6624 140.152 74.5104 140.008C74.3664 139.856 74.2944 139.676 74.2944 139.468C74.2944 139.252 74.3664 139.072 74.5104 138.928C74.6624 138.776 74.8504 138.7 75.0744 138.7C75.3064 138.7 75.4944 138.776 75.6384 138.928C75.7824 139.072 75.8544 139.252 75.8544 139.468C75.8544 139.676 75.7824 139.856 75.6384 140.008C75.4944 140.152 75.3064 140.224 75.0744 140.224ZM80.2662 145.144C79.5382 145.144 78.9102 144.964 78.3822 144.604C77.8622 144.236 77.4622 143.728 77.1822 143.08C76.9022 142.424 76.7622 141.664 76.7622 140.8C76.7622 139.936 76.9022 139.18 77.1822 138.532C77.4622 137.876 77.8622 137.368 78.3822 137.008C78.9102 136.64 79.5382 136.456 80.2662 136.456C81.0022 136.456 81.6262 136.64 82.1382 137.008C82.6583 137.368 83.0583 137.876 83.3382 138.532C83.6263 139.18 83.7703 139.936 83.7703 140.8C83.7703 141.664 83.6263 142.424 83.3382 143.08C83.0583 143.728 82.6583 144.236 82.1382 144.604C81.6262 144.964 81.0022 145.144 80.2662 145.144ZM80.2662 144.076C80.7062 144.076 81.0942 143.944 81.4302 143.68C81.7742 143.416 82.0422 143.04 82.2342 142.552C82.4343 142.064 82.5343 141.48 82.5343 140.8C82.5343 140.112 82.4343 139.528 82.2342 139.048C82.0422 138.56 81.7742 138.188 81.4302 137.932C81.0942 137.668 80.7062 137.536 80.2662 137.536C79.8262 137.536 79.4342 137.668 79.0902 137.932C78.7462 138.188 78.4742 138.56 78.2742 139.048C78.0822 139.528 77.9862 140.112 77.9862 140.8C77.9862 141.48 78.0822 142.064 78.2742 142.552C78.4742 143.04 78.7462 143.416 79.0902 143.68C79.4342 143.944 79.8262 144.076 80.2662 144.076ZM88.1708 145.144C87.4428 145.144 86.8148 144.964 86.2868 144.604C85.7668 144.236 85.3668 143.728 85.0868 143.08C84.8068 142.424 84.6668 141.664 84.6668 140.8C84.6668 139.936 84.8068 139.18 85.0868 138.532C85.3668 137.876 85.7668 137.368 86.2868 137.008C86.8148 136.64 87.4428 136.456 88.1708 136.456C88.9068 136.456 89.5308 136.64 90.0428 137.008C90.5628 137.368 90.9628 137.876 91.2428 138.532C91.5308 139.18 91.6748 139.936 91.6748 140.8C91.6748 141.664 91.5308 142.424 91.2428 143.08C90.9628 143.728 90.5628 144.236 90.0428 144.604C89.5308 144.964 88.9068 145.144 88.1708 145.144ZM88.1708 144.076C88.6108 144.076 88.9988 143.944 89.3348 143.68C89.6788 143.416 89.9468 143.04 90.1388 142.552C90.3388 142.064 90.4388 141.48 90.4388 140.8C90.4388 140.112 90.3388 139.528 90.1388 139.048C89.9468 138.56 89.6788 138.188 89.3348 137.932C88.9988 137.668 88.6108 137.536 88.1708 137.536C87.7308 137.536 87.3388 137.668 86.9948 137.932C86.6508 138.188 86.3788 138.56 86.1788 139.048C85.9868 139.528 85.8908 140.112 85.8908 140.8C85.8908 141.48 85.9868 142.064 86.1788 142.552C86.3788 143.04 86.6508 143.416 86.9948 143.68C87.3388 143.944 87.7308 144.076 88.1708 144.076ZM95.7371 145V136.6H98.5931C99.2651 136.6 99.8171 136.712 100.249 136.936C100.689 137.16 101.013 137.464 101.221 137.848C101.429 138.224 101.533 138.656 101.533 139.144C101.533 139.608 101.429 140.032 101.221 140.416C101.013 140.8 100.693 141.108 100.261 141.34C99.8291 141.564 99.2731 141.676 98.5931 141.676H96.9371V145H95.7371ZM96.9371 140.68H98.5451C99.1851 140.68 99.6371 140.54 99.9011 140.26C100.173 139.98 100.309 139.608 100.309 139.144C100.309 138.656 100.173 138.276 99.9011 138.004C99.6371 137.732 99.1851 137.596 98.5451 137.596H96.9371V140.68ZM102.61 145V136.6H104.026L106.822 142.288L109.606 136.6H111.022V145H109.822V138.712L107.278 143.848H106.354L103.81 138.736V145H102.61ZM115.419 141.892V140.884H120.267V141.892H115.419ZM127.835 145.144C127.107 145.144 126.479 144.964 125.951 144.604C125.431 144.236 125.031 143.728 124.751 143.08C124.471 142.424 124.331 141.664 124.331 140.8C124.331 139.936 124.471 139.18 124.751 138.532C125.031 137.876 125.431 137.368 125.951 137.008C126.479 136.64 127.107 136.456 127.835 136.456C128.571 136.456 129.195 136.64 129.707 137.008C130.227 137.368 130.627 137.876 130.907 138.532C131.195 139.18 131.339 139.936 131.339 140.8C131.339 141.664 131.195 142.424 130.907 143.08C130.627 143.728 130.227 144.236 129.707 144.604C129.195 144.964 128.571 145.144 127.835 145.144ZM127.835 144.076C128.275 144.076 128.663 143.944 128.999 143.68C129.343 143.416 129.611 143.04 129.803 142.552C130.003 142.064 130.103 141.48 130.103 140.8C130.103 140.112 130.003 139.528 129.803 139.048C129.611 138.56 129.343 138.188 128.999 137.932C128.663 137.668 128.275 137.536 127.835 137.536C127.395 137.536 127.003 137.668 126.659 137.932C126.315 138.188 126.043 138.56 125.843 139.048C125.651 139.528 125.555 140.112 125.555 140.8C125.555 141.48 125.651 142.064 125.843 142.552C126.043 143.04 126.315 143.416 126.659 143.68C127.003 143.944 127.395 144.076 127.835 144.076ZM132.285 145V144.136C132.853 143.704 133.389 143.268 133.893 142.828C134.405 142.388 134.861 141.952 135.261 141.52C135.661 141.08 135.973 140.652 136.197 140.236C136.429 139.812 136.545 139.408 136.545 139.024C136.545 138.752 136.493 138.5 136.389 138.268C136.293 138.036 136.137 137.848 135.921 137.704C135.713 137.552 135.429 137.476 135.069 137.476C134.717 137.476 134.425 137.552 134.193 137.704C133.961 137.856 133.785 138.06 133.665 138.316C133.553 138.564 133.497 138.84 133.497 139.144H132.333C132.341 138.568 132.465 138.08 132.705 137.68C132.945 137.28 133.273 136.976 133.689 136.768C134.105 136.56 134.573 136.456 135.093 136.456C135.629 136.456 136.093 136.556 136.485 136.756C136.877 136.948 137.185 137.232 137.409 137.608C137.633 137.984 137.745 138.436 137.745 138.964C137.745 139.348 137.665 139.732 137.505 140.116C137.353 140.492 137.145 140.86 136.881 141.22C136.617 141.58 136.321 141.928 135.993 142.264C135.673 142.592 135.341 142.904 134.997 143.2C134.653 143.496 134.325 143.764 134.013 144.004H137.997V145H132.285ZM139.63 145.06C139.406 145.06 139.218 144.988 139.066 144.844C138.922 144.692 138.85 144.512 138.85 144.304C138.85 144.088 138.922 143.908 139.066 143.764C139.218 143.612 139.406 143.536 139.63 143.536C139.862 143.536 140.05 143.612 140.194 143.764C140.338 143.908 140.41 144.088 140.41 144.304C140.41 144.512 140.338 144.692 140.194 144.844C140.05 144.988 139.862 145.06 139.63 145.06ZM139.63 140.224C139.406 140.224 139.218 140.152 139.066 140.008C138.922 139.856 138.85 139.676 138.85 139.468C138.85 139.252 138.922 139.072 139.066 138.928C139.218 138.776 139.406 138.7 139.63 138.7C139.862 138.7 140.05 138.776 140.194 138.928C140.338 139.072 140.41 139.252 140.41 139.468C140.41 139.676 140.338 139.856 140.194 140.008C140.05 140.152 139.862 140.224 139.63 140.224ZM144.822 145.144C144.094 145.144 143.466 144.964 142.938 144.604C142.418 144.236 142.018 143.728 141.738 143.08C141.458 142.424 141.318 141.664 141.318 140.8C141.318 139.936 141.458 139.18 141.738 138.532C142.018 137.876 142.418 137.368 142.938 137.008C143.466 136.64 144.094 136.456 144.822 136.456C145.558 136.456 146.182 136.64 146.694 137.008C147.214 137.368 147.614 137.876 147.894 138.532C148.182 139.18 148.326 139.936 148.326 140.8C148.326 141.664 148.182 142.424 147.894 143.08C147.614 143.728 147.214 144.236 146.694 144.604C146.182 144.964 145.558 145.144 144.822 145.144ZM144.822 144.076C145.262 144.076 145.65 143.944 145.986 143.68C146.33 143.416 146.598 143.04 146.79 142.552C146.99 142.064 147.09 141.48 147.09 140.8C147.09 140.112 146.99 139.528 146.79 139.048C146.598 138.56 146.33 138.188 145.986 137.932C145.65 137.668 145.262 137.536 144.822 137.536C144.382 137.536 143.99 137.668 143.646 137.932C143.302 138.188 143.03 138.56 142.83 139.048C142.638 139.528 142.542 140.112 142.542 140.8C142.542 141.48 142.638 142.064 142.83 142.552C143.03 143.04 143.302 143.416 143.646 143.68C143.99 143.944 144.382 144.076 144.822 144.076ZM152.726 145.144C151.998 145.144 151.37 144.964 150.842 144.604C150.322 144.236 149.922 143.728 149.642 143.08C149.362 142.424 149.222 141.664 149.222 140.8C149.222 139.936 149.362 139.18 149.642 138.532C149.922 137.876 150.322 137.368 150.842 137.008C151.37 136.64 151.998 136.456 152.726 136.456C153.462 136.456 154.086 136.64 154.598 137.008C155.118 137.368 155.518 137.876 155.798 138.532C156.086 139.18 156.23 139.936 156.23 140.8C156.23 141.664 156.086 142.424 155.798 143.08C155.518 143.728 155.118 144.236 154.598 144.604C154.086 144.964 153.462 145.144 152.726 145.144ZM152.726 144.076C153.166 144.076 153.554 143.944 153.89 143.68C154.234 143.416 154.502 143.04 154.694 142.552C154.894 142.064 154.994 141.48 154.994 140.8C154.994 140.112 154.894 139.528 154.694 139.048C154.502 138.56 154.234 138.188 153.89 137.932C153.554 137.668 153.166 137.536 152.726 137.536C152.286 137.536 151.894 137.668 151.55 137.932C151.206 138.188 150.934 138.56 150.734 139.048C150.542 139.528 150.446 140.112 150.446 140.8C150.446 141.48 150.542 142.064 150.734 142.552C150.934 143.04 151.206 143.416 151.55 143.68C151.894 143.944 152.286 144.076 152.726 144.076ZM160.292 145V136.6H163.148C163.82 136.6 164.372 136.712 164.804 136.936C165.244 137.16 165.568 137.464 165.776 137.848C165.984 138.224 166.088 138.656 166.088 139.144C166.088 139.608 165.984 140.032 165.776 140.416C165.568 140.8 165.248 141.108 164.816 141.34C164.384 141.564 163.828 141.676 163.148 141.676H161.492V145H160.292ZM161.492 140.68H163.1C163.74 140.68 164.192 140.54 164.456 140.26C164.728 139.98 164.864 139.608 164.864 139.144C164.864 138.656 164.728 138.276 164.456 138.004C164.192 137.732 163.74 137.596 163.1 137.596H161.492V140.68ZM167.166 145V136.6H168.582L171.378 142.288L174.162 136.6H175.578V145H174.378V138.712L171.834 143.848H170.91L168.366 138.736V145H167.166Z" fill="#A3AED0"/>
<rect x="48" y="110" width="4" height="41" rx="2" fill="#4318FF"/>
<path d="M68 191.192C66.944 191.192 66.0213 190.957 65.232 190.488C64.4427 190.008 63.824 189.341 63.376 188.488C62.9387 187.624 62.72 186.621 62.72 185.48C62.72 184.328 62.944 183.315 63.392 182.44C63.8507 181.555 64.5013 180.861 65.344 180.36C66.1867 179.859 67.1893 179.608 68.352 179.608C69.6747 179.608 70.768 179.923 71.632 180.552C72.5067 181.181 73.072 182.056 73.328 183.176H70.912C70.752 182.685 70.4533 182.301 70.016 182.024C69.5893 181.736 69.0347 181.592 68.352 181.592C67.616 181.592 66.992 181.752 66.48 182.072C65.9787 182.392 65.5947 182.84 65.328 183.416C65.0613 183.992 64.928 184.68 64.928 185.48C64.928 186.291 65.0613 186.979 65.328 187.544C65.5947 188.109 65.9733 188.541 66.464 188.84C66.9653 189.128 67.552 189.272 68.224 189.272C69.2053 189.272 69.9467 189.011 70.448 188.488C70.96 187.955 71.264 187.267 71.36 186.424H68.608V184.808H73.536V191H71.536L71.376 189.576C71.1307 189.928 70.8533 190.227 70.544 190.472C70.2347 190.707 69.872 190.883 69.456 191C69.04 191.128 68.5547 191.192 68 191.192ZM75.1735 191V182.968H77.0935L77.2855 184.456C77.4882 184.104 77.7335 183.805 78.0215 183.56C78.3095 183.304 78.6402 183.112 79.0135 182.984C79.3975 182.845 79.8188 182.776 80.2775 182.776V185.064H79.5575C79.2375 185.064 78.9388 185.101 78.6615 185.176C78.3948 185.24 78.1602 185.357 77.9575 185.528C77.7548 185.699 77.6002 185.928 77.4935 186.216C77.3868 186.504 77.3335 186.867 77.3335 187.304V191H75.1735ZM85.0521 191.192C84.2841 191.192 83.5908 191.016 82.9721 190.664C82.3641 190.301 81.8788 189.805 81.5161 189.176C81.1641 188.536 80.9881 187.805 80.9881 186.984C80.9881 186.152 81.1641 185.421 81.5161 184.792C81.8788 184.163 82.3695 183.672 82.9881 183.32C83.6068 182.957 84.3001 182.776 85.0681 182.776C85.8468 182.776 86.5401 182.957 87.1481 183.32C87.7668 183.672 88.2521 184.163 88.6041 184.792C88.9668 185.421 89.1481 186.152 89.1481 186.984C89.1481 187.805 88.9668 188.536 88.6041 189.176C88.2521 189.805 87.7668 190.301 87.1481 190.664C86.5295 191.016 85.8308 191.192 85.0521 191.192ZM85.0521 189.32C85.4041 189.32 85.7188 189.235 85.9961 189.064C86.2841 188.893 86.5135 188.632 86.6841 188.28C86.8548 187.928 86.9401 187.496 86.9401 186.984C86.9401 186.461 86.8548 186.029 86.6841 185.688C86.5241 185.336 86.3001 185.075 86.0121 184.904C85.7348 184.733 85.4201 184.648 85.0681 184.648C84.7268 184.648 84.4121 184.733 84.1241 184.904C83.8361 185.075 83.6068 185.336 83.4361 185.688C83.2655 186.029 83.1801 186.461 83.1801 186.984C83.1801 187.496 83.2655 187.928 83.4361 188.28C83.6068 188.632 83.8308 188.893 84.1081 189.064C84.3961 189.235 84.7108 189.32 85.0521 189.32ZM93.6818 191.192C93.0311 191.192 92.4711 191.059 92.0018 190.792C91.5431 190.515 91.1911 190.109 90.9458 189.576C90.7111 189.043 90.5938 188.387 90.5938 187.608V182.968H92.7378V187.384C92.7378 188.035 92.8711 188.531 93.1378 188.872C93.4151 189.203 93.8364 189.368 94.4018 189.368C94.7644 189.368 95.0844 189.288 95.3618 189.128C95.6498 188.957 95.8738 188.712 96.0338 188.392C96.1938 188.072 96.2738 187.683 96.2738 187.224V182.968H98.4338V191H96.5298L96.3698 189.688C96.1244 190.147 95.7724 190.515 95.3138 190.792C94.8658 191.059 94.3218 191.192 93.6818 191.192ZM100.229 194.52V182.968H102.149L102.389 184.072C102.56 183.837 102.762 183.624 102.997 183.432C103.232 183.229 103.509 183.069 103.829 182.952C104.16 182.835 104.544 182.776 104.981 182.776C105.738 182.776 106.405 182.963 106.981 183.336C107.557 183.699 108.01 184.2 108.341 184.84C108.682 185.469 108.853 186.189 108.853 187C108.853 187.8 108.682 188.52 108.341 189.16C108 189.789 107.541 190.285 106.965 190.648C106.389 191.011 105.733 191.192 104.997 191.192C104.4 191.192 103.882 191.085 103.445 190.872C103.008 190.648 102.656 190.344 102.389 189.96V194.52H100.229ZM104.485 189.304C104.912 189.304 105.285 189.208 105.605 189.016C105.936 188.824 106.192 188.552 106.373 188.2C106.565 187.848 106.661 187.448 106.661 187C106.661 186.541 106.565 186.136 106.373 185.784C106.192 185.432 105.936 185.16 105.605 184.968C105.285 184.765 104.912 184.664 104.485 184.664C104.069 184.664 103.696 184.765 103.365 184.968C103.034 185.16 102.778 185.432 102.597 185.784C102.416 186.125 102.325 186.525 102.325 186.984C102.325 187.443 102.416 187.848 102.597 188.2C102.778 188.552 103.034 188.824 103.365 189.016C103.696 189.208 104.069 189.304 104.485 189.304ZM113.871 191V179.8H116.463L119.903 186.776L123.295 179.8H125.871V191H123.711V183.464L120.735 189.432H119.023L116.031 183.48V191H113.871ZM131.563 191.192C130.752 191.192 130.032 191.021 129.403 190.68C128.784 190.328 128.299 189.843 127.947 189.224C127.606 188.595 127.435 187.875 127.435 187.064C127.435 186.221 127.606 185.48 127.947 184.84C128.288 184.2 128.768 183.699 129.387 183.336C130.016 182.963 130.742 182.776 131.563 182.776C132.363 182.776 133.062 182.952 133.659 183.304C134.256 183.645 134.72 184.115 135.051 184.712C135.392 185.309 135.563 185.987 135.563 186.744C135.563 186.851 135.558 186.973 135.547 187.112C135.547 187.24 135.542 187.373 135.531 187.512H128.971V186.184H133.371C133.35 185.683 133.168 185.283 132.827 184.984C132.486 184.675 132.07 184.52 131.579 184.52C131.206 184.52 130.864 184.605 130.555 184.776C130.246 184.947 130 185.203 129.819 185.544C129.648 185.875 129.563 186.296 129.563 186.808V187.272C129.563 187.709 129.643 188.093 129.803 188.424C129.974 188.744 130.208 188.995 130.507 189.176C130.806 189.347 131.152 189.432 131.547 189.432C131.942 189.432 132.267 189.347 132.523 189.176C132.79 189.005 132.992 188.781 133.131 188.504H135.323C135.174 189.016 134.923 189.475 134.571 189.88C134.219 190.285 133.787 190.605 133.275 190.84C132.763 191.075 132.192 191.192 131.563 191.192ZM140.868 191.192C140.057 191.192 139.337 191.021 138.708 190.68C138.089 190.328 137.604 189.843 137.252 189.224C136.911 188.595 136.74 187.875 136.74 187.064C136.74 186.221 136.911 185.48 137.252 184.84C137.593 184.2 138.073 183.699 138.692 183.336C139.321 182.963 140.047 182.776 140.868 182.776C141.668 182.776 142.367 182.952 142.964 183.304C143.561 183.645 144.025 184.115 144.356 184.712C144.697 185.309 144.868 185.987 144.868 186.744C144.868 186.851 144.863 186.973 144.852 187.112C144.852 187.24 144.847 187.373 144.836 187.512H138.276V186.184H142.676C142.655 185.683 142.473 185.283 142.132 184.984C141.791 184.675 141.375 184.52 140.884 184.52C140.511 184.52 140.169 184.605 139.86 184.776C139.551 184.947 139.305 185.203 139.124 185.544C138.953 185.875 138.868 186.296 138.868 186.808V187.272C138.868 187.709 138.948 188.093 139.108 188.424C139.279 188.744 139.513 188.995 139.812 189.176C140.111 189.347 140.457 189.432 140.852 189.432C141.247 189.432 141.572 189.347 141.828 189.176C142.095 189.005 142.297 188.781 142.436 188.504H144.628C144.479 189.016 144.228 189.475 143.876 189.88C143.524 190.285 143.092 190.605 142.58 190.84C142.068 191.075 141.497 191.192 140.868 191.192ZM149.808 191C149.253 191 148.762 190.915 148.336 190.744C147.909 190.563 147.578 190.269 147.344 189.864C147.109 189.448 146.992 188.883 146.992 188.168V184.776H145.616V182.968H146.992L147.248 180.776H149.152V182.968H151.28V184.776H149.152V188.2C149.152 188.563 149.232 188.813 149.392 188.952C149.552 189.091 149.824 189.16 150.208 189.16H151.248V191H149.808ZM152.81 191V182.968H154.97V191H152.81ZM153.898 181.848C153.504 181.848 153.184 181.736 152.938 181.512C152.693 181.277 152.57 180.984 152.57 180.632C152.57 180.28 152.693 179.992 152.938 179.768C153.184 179.533 153.504 179.416 153.898 179.416C154.293 179.416 154.613 179.533 154.858 179.768C155.114 179.992 155.242 180.28 155.242 180.632C155.242 180.984 155.114 181.277 154.858 181.512C154.613 181.736 154.293 181.848 153.898 181.848ZM156.817 191V182.968H158.721L158.881 184.28C159.127 183.821 159.473 183.459 159.921 183.192C160.38 182.915 160.924 182.776 161.553 182.776C162.225 182.776 162.791 182.915 163.249 183.192C163.708 183.469 164.055 183.875 164.289 184.408C164.535 184.941 164.657 185.603 164.657 186.392V191H162.513V186.584C162.513 185.944 162.375 185.453 162.097 185.112C161.831 184.771 161.415 184.6 160.849 184.6C160.487 184.6 160.161 184.685 159.873 184.856C159.596 185.027 159.377 185.272 159.217 185.592C159.057 185.901 158.977 186.285 158.977 186.744V191H156.817ZM169.813 194.712C169.045 194.712 168.373 194.616 167.797 194.424C167.231 194.243 166.789 193.96 166.469 193.576C166.159 193.203 166.005 192.739 166.005 192.184C166.005 191.811 166.101 191.459 166.293 191.128C166.485 190.797 166.762 190.499 167.125 190.232C167.498 189.955 167.962 189.72 168.517 189.528L169.333 190.6C168.842 190.76 168.485 190.957 168.261 191.192C168.047 191.437 167.941 191.693 167.941 191.96C167.941 192.205 168.021 192.413 168.181 192.584C168.351 192.755 168.575 192.877 168.853 192.952C169.141 193.037 169.461 193.08 169.813 193.08C170.143 193.08 170.437 193.037 170.693 192.952C170.949 192.867 171.146 192.739 171.285 192.568C171.434 192.408 171.509 192.216 171.509 191.992C171.509 191.704 171.407 191.469 171.205 191.288C171.002 191.107 170.597 190.995 169.989 190.952C169.445 190.909 168.959 190.851 168.533 190.776C168.117 190.691 167.749 190.595 167.429 190.488C167.119 190.371 166.853 190.248 166.629 190.12C166.405 189.981 166.223 189.843 166.085 189.704V189.336L167.797 187.48L169.333 187.976L167.333 189.976L167.957 188.904C168.063 188.979 168.17 189.048 168.277 189.112C168.394 189.165 168.538 189.213 168.709 189.256C168.879 189.299 169.103 189.341 169.381 189.384C169.658 189.427 170.005 189.469 170.421 189.512C171.135 189.565 171.717 189.693 172.165 189.896C172.613 190.099 172.943 190.371 173.157 190.712C173.37 191.053 173.477 191.464 173.477 191.944C173.477 192.424 173.343 192.872 173.077 193.288C172.821 193.715 172.421 194.056 171.877 194.312C171.343 194.579 170.655 194.712 169.813 194.712ZM169.829 188.632C169.157 188.632 168.575 188.504 168.085 188.248C167.605 187.981 167.231 187.629 166.965 187.192C166.709 186.744 166.581 186.248 166.581 185.704C166.581 185.16 166.709 184.669 166.965 184.232C167.231 183.795 167.605 183.443 168.085 183.176C168.575 182.909 169.157 182.776 169.829 182.776C170.511 182.776 171.093 182.909 171.573 183.176C172.063 183.443 172.437 183.795 172.693 184.232C172.949 184.669 173.077 185.16 173.077 185.704C173.077 186.248 172.949 186.744 172.693 187.192C172.437 187.629 172.063 187.981 171.573 188.248C171.093 188.504 170.511 188.632 169.829 188.632ZM169.829 186.984C170.245 186.984 170.581 186.877 170.837 186.664C171.093 186.44 171.221 186.12 171.221 185.704C171.221 185.299 171.093 184.989 170.837 184.776C170.581 184.563 170.245 184.456 169.829 184.456C169.423 184.456 169.087 184.563 168.821 184.776C168.565 184.989 168.437 185.299 168.437 185.704C168.437 186.12 168.565 186.44 168.821 186.664C169.077 186.877 169.413 186.984 169.829 186.984ZM171.157 184.488L170.805 182.968H174.133V184.248L171.157 184.488Z" fill="#1B2559"/>
<path d="M66.08 210.144C65.352 210.144 64.724 209.964 64.196 209.604C63.676 209.236 63.276 208.728 62.996 208.08C62.716 207.424 62.576 206.664 62.576 205.8C62.576 204.936 62.716 204.18 62.996 203.532C63.276 202.876 63.676 202.368 64.196 202.008C64.724 201.64 65.352 201.456 66.08 201.456C66.816 201.456 67.44 201.64 67.952 202.008C68.472 202.368 68.872 202.876 69.152 203.532C69.44 204.18 69.584 204.936 69.584 205.8C69.584 206.664 69.44 207.424 69.152 208.08C68.872 208.728 68.472 209.236 67.952 209.604C67.44 209.964 66.816 210.144 66.08 210.144ZM66.08 209.076C66.52 209.076 66.908 208.944 67.244 208.68C67.588 208.416 67.856 208.04 68.048 207.552C68.248 207.064 68.348 206.48 68.348 205.8C68.348 205.112 68.248 204.528 68.048 204.048C67.856 203.56 67.588 203.188 67.244 202.932C66.908 202.668 66.52 202.536 66.08 202.536C65.64 202.536 65.248 202.668 64.904 202.932C64.56 203.188 64.288 203.56 64.088 204.048C63.896 204.528 63.8 205.112 63.8 205.8C63.8 206.48 63.896 207.064 64.088 207.552C64.288 208.04 64.56 208.416 64.904 208.68C65.248 208.944 65.64 209.076 66.08 209.076ZM70.5308 210V209.136C71.0988 208.704 71.6348 208.268 72.1388 207.828C72.6508 207.388 73.1068 206.952 73.5068 206.52C73.9068 206.08 74.2188 205.652 74.4428 205.236C74.6748 204.812 74.7908 204.408 74.7908 204.024C74.7908 203.752 74.7388 203.5 74.6348 203.268C74.5388 203.036 74.3828 202.848 74.1668 202.704C73.9588 202.552 73.6748 202.476 73.3148 202.476C72.9628 202.476 72.6708 202.552 72.4388 202.704C72.2068 202.856 72.0308 203.06 71.9108 203.316C71.7988 203.564 71.7428 203.84 71.7428 204.144H70.5788C70.5868 203.568 70.7108 203.08 70.9508 202.68C71.1908 202.28 71.5188 201.976 71.9348 201.768C72.3508 201.56 72.8188 201.456 73.3388 201.456C73.8748 201.456 74.3388 201.556 74.7308 201.756C75.1228 201.948 75.4308 202.232 75.6548 202.608C75.8788 202.984 75.9908 203.436 75.9908 203.964C75.9908 204.348 75.9108 204.732 75.7508 205.116C75.5988 205.492 75.3908 205.86 75.1268 206.22C74.8628 206.58 74.5668 206.928 74.2388 207.264C73.9188 207.592 73.5868 207.904 73.2428 208.2C72.8988 208.496 72.5708 208.764 72.2588 209.004H76.2428V210H70.5308ZM77.8752 210.06C77.6512 210.06 77.4632 209.988 77.3112 209.844C77.1672 209.692 77.0952 209.512 77.0952 209.304C77.0952 209.088 77.1672 208.908 77.3112 208.764C77.4632 208.612 77.6512 208.536 77.8752 208.536C78.1072 208.536 78.2952 208.612 78.4392 208.764C78.5832 208.908 78.6552 209.088 78.6552 209.304C78.6552 209.512 78.5832 209.692 78.4392 209.844C78.2952 209.988 78.1072 210.06 77.8752 210.06ZM77.8752 205.224C77.6512 205.224 77.4632 205.152 77.3112 205.008C77.1672 204.856 77.0952 204.676 77.0952 204.468C77.0952 204.252 77.1672 204.072 77.3112 203.928C77.4632 203.776 77.6512 203.7 77.8752 203.7C78.1072 203.7 78.2952 203.776 78.4392 203.928C78.5832 204.072 78.6552 204.252 78.6552 204.468C78.6552 204.676 78.5832 204.856 78.4392 205.008C78.2952 205.152 78.1072 205.224 77.8752 205.224ZM83.067 210.144C82.339 210.144 81.711 209.964 81.183 209.604C80.663 209.236 80.263 208.728 79.983 208.08C79.703 207.424 79.563 206.664 79.563 205.8C79.563 204.936 79.703 204.18 79.983 203.532C80.263 202.876 80.663 202.368 81.183 202.008C81.711 201.64 82.339 201.456 83.067 201.456C83.803 201.456 84.427 201.64 84.939 202.008C85.459 202.368 85.859 202.876 86.139 203.532C86.427 204.18 86.571 204.936 86.571 205.8C86.571 206.664 86.427 207.424 86.139 208.08C85.859 208.728 85.459 209.236 84.939 209.604C84.427 209.964 83.803 210.144 83.067 210.144ZM83.067 209.076C83.507 209.076 83.895 208.944 84.231 208.68C84.575 208.416 84.843 208.04 85.035 207.552C85.235 207.064 85.335 206.48 85.335 205.8C85.335 205.112 85.235 204.528 85.035 204.048C84.843 203.56 84.575 203.188 84.231 202.932C83.895 202.668 83.507 202.536 83.067 202.536C82.627 202.536 82.235 202.668 81.891 202.932C81.547 203.188 81.275 203.56 81.075 204.048C80.883 204.528 80.787 205.112 80.787 205.8C80.787 206.48 80.883 207.064 81.075 207.552C81.275 208.04 81.547 208.416 81.891 208.68C82.235 208.944 82.627 209.076 83.067 209.076ZM90.9716 210.144C90.2436 210.144 89.6156 209.964 89.0876 209.604C88.5676 209.236 88.1676 208.728 87.8876 208.08C87.6076 207.424 87.4676 206.664 87.4676 205.8C87.4676 204.936 87.6076 204.18 87.8876 203.532C88.1676 202.876 88.5676 202.368 89.0876 202.008C89.6156 201.64 90.2436 201.456 90.9716 201.456C91.7076 201.456 92.3316 201.64 92.8436 202.008C93.3636 202.368 93.7636 202.876 94.0436 203.532C94.3316 204.18 94.4756 204.936 94.4756 205.8C94.4756 206.664 94.3316 207.424 94.0436 208.08C93.7636 208.728 93.3636 209.236 92.8436 209.604C92.3316 209.964 91.7076 210.144 90.9716 210.144ZM90.9716 209.076C91.4116 209.076 91.7996 208.944 92.1356 208.68C92.4796 208.416 92.7476 208.04 92.9396 207.552C93.1396 207.064 93.2396 206.48 93.2396 205.8C93.2396 205.112 93.1396 204.528 92.9396 204.048C92.7476 203.56 92.4796 203.188 92.1356 202.932C91.7996 202.668 91.4116 202.536 90.9716 202.536C90.5316 202.536 90.1396 202.668 89.7956 202.932C89.4516 203.188 89.1796 203.56 88.9796 204.048C88.7876 204.528 88.6916 205.112 88.6916 205.8C88.6916 206.48 88.7876 207.064 88.9796 207.552C89.1796 208.04 89.4516 208.416 89.7956 208.68C90.1396 208.944 90.5316 209.076 90.9716 209.076ZM98.5378 210V201.6H101.394C102.066 201.6 102.618 201.712 103.05 201.936C103.49 202.16 103.814 202.464 104.022 202.848C104.23 203.224 104.334 203.656 104.334 204.144C104.334 204.608 104.23 205.032 104.022 205.416C103.814 205.8 103.494 206.108 103.062 206.34C102.63 206.564 102.074 206.676 101.394 206.676H99.7378V210H98.5378ZM99.7378 205.68H101.346C101.986 205.68 102.438 205.54 102.702 205.26C102.974 204.98 103.11 204.608 103.11 204.144C103.11 203.656 102.974 203.276 102.702 203.004C102.438 202.732 101.986 202.596 101.346 202.596H99.7378V205.68ZM105.411 210V201.6H106.827L109.623 207.288L112.407 201.6H113.823V210H112.623V203.712L110.079 208.848H109.155L106.611 203.736V210H105.411ZM118.22 206.892V205.884H123.068V206.892H118.22ZM130.635 210.144C129.907 210.144 129.279 209.964 128.751 209.604C128.231 209.236 127.831 208.728 127.551 208.08C127.271 207.424 127.131 206.664 127.131 205.8C127.131 204.936 127.271 204.18 127.551 203.532C127.831 202.876 128.231 202.368 128.751 202.008C129.279 201.64 129.907 201.456 130.635 201.456C131.371 201.456 131.995 201.64 132.507 202.008C133.027 202.368 133.427 202.876 133.707 203.532C133.995 204.18 134.139 204.936 134.139 205.8C134.139 206.664 133.995 207.424 133.707 208.08C133.427 208.728 133.027 209.236 132.507 209.604C131.995 209.964 131.371 210.144 130.635 210.144ZM130.635 209.076C131.075 209.076 131.463 208.944 131.799 208.68C132.143 208.416 132.411 208.04 132.603 207.552C132.803 207.064 132.903 206.48 132.903 205.8C132.903 205.112 132.803 204.528 132.603 204.048C132.411 203.56 132.143 203.188 131.799 202.932C131.463 202.668 131.075 202.536 130.635 202.536C130.195 202.536 129.803 202.668 129.459 202.932C129.115 203.188 128.843 203.56 128.643 204.048C128.451 204.528 128.355 205.112 128.355 205.8C128.355 206.48 128.451 207.064 128.643 207.552C128.843 208.04 129.115 208.416 129.459 208.68C129.803 208.944 130.195 209.076 130.635 209.076ZM138.024 210.144C137.488 210.144 136.996 210.048 136.548 209.856C136.108 209.656 135.756 209.36 135.492 208.968C135.236 208.568 135.1 208.068 135.084 207.468H136.284C136.292 207.772 136.364 208.048 136.5 208.296C136.636 208.544 136.832 208.744 137.088 208.896C137.352 209.04 137.664 209.112 138.024 209.112C138.384 209.112 138.684 209.044 138.924 208.908C139.172 208.772 139.356 208.588 139.476 208.356C139.604 208.124 139.668 207.864 139.668 207.576C139.668 207.224 139.58 206.936 139.404 206.712C139.236 206.488 139.004 206.32 138.708 206.208C138.42 206.096 138.096 206.04 137.736 206.04H137.112V205.044H137.736C138.248 205.044 138.656 204.928 138.96 204.696C139.264 204.456 139.416 204.124 139.416 203.7C139.416 203.348 139.296 203.06 139.056 202.836C138.824 202.604 138.48 202.488 138.024 202.488C137.568 202.488 137.208 202.616 136.944 202.872C136.68 203.128 136.532 203.452 136.5 203.844H135.3C135.324 203.372 135.452 202.956 135.684 202.596C135.916 202.228 136.232 201.948 136.632 201.756C137.032 201.556 137.496 201.456 138.024 201.456C138.592 201.456 139.064 201.556 139.44 201.756C139.824 201.948 140.116 202.208 140.316 202.536C140.516 202.864 140.616 203.224 140.616 203.616C140.616 203.912 140.556 204.192 140.436 204.456C140.324 204.712 140.164 204.932 139.956 205.116C139.748 205.3 139.492 205.432 139.188 205.512C139.508 205.568 139.792 205.692 140.04 205.884C140.296 206.068 140.496 206.304 140.64 206.592C140.792 206.88 140.868 207.212 140.868 207.588C140.868 208.044 140.76 208.468 140.544 208.86C140.328 209.244 140.008 209.556 139.584 209.796C139.168 210.028 138.648 210.144 138.024 210.144ZM142.712 210.06C142.488 210.06 142.3 209.988 142.148 209.844C142.004 209.692 141.932 209.512 141.932 209.304C141.932 209.088 142.004 208.908 142.148 208.764C142.3 208.612 142.488 208.536 142.712 208.536C142.944 208.536 143.132 208.612 143.276 208.764C143.42 208.908 143.492 209.088 143.492 209.304C143.492 209.512 143.42 209.692 143.276 209.844C143.132 209.988 142.944 210.06 142.712 210.06ZM142.712 205.224C142.488 205.224 142.3 205.152 142.148 205.008C142.004 204.856 141.932 204.676 141.932 204.468C141.932 204.252 142.004 204.072 142.148 203.928C142.3 203.776 142.488 203.7 142.712 203.7C142.944 203.7 143.132 203.776 143.276 203.928C143.42 204.072 143.492 204.252 143.492 204.468C143.492 204.676 143.42 204.856 143.276 205.008C143.132 205.152 142.944 205.224 142.712 205.224ZM147.904 210.144C147.176 210.144 146.548 209.964 146.02 209.604C145.5 209.236 145.1 208.728 144.82 208.08C144.54 207.424 144.4 206.664 144.4 205.8C144.4 204.936 144.54 204.18 144.82 203.532C145.1 202.876 145.5 202.368 146.02 202.008C146.548 201.64 147.176 201.456 147.904 201.456C148.64 201.456 149.264 201.64 149.776 202.008C150.296 202.368 150.696 202.876 150.976 203.532C151.264 204.18 151.408 204.936 151.408 205.8C151.408 206.664 151.264 207.424 150.976 208.08C150.696 208.728 150.296 209.236 149.776 209.604C149.264 209.964 148.64 210.144 147.904 210.144ZM147.904 209.076C148.344 209.076 148.732 208.944 149.068 208.68C149.412 208.416 149.68 208.04 149.872 207.552C150.072 207.064 150.172 206.48 150.172 205.8C150.172 205.112 150.072 204.528 149.872 204.048C149.68 203.56 149.412 203.188 149.068 202.932C148.732 202.668 148.344 202.536 147.904 202.536C147.464 202.536 147.072 202.668 146.728 202.932C146.384 203.188 146.112 203.56 145.912 204.048C145.72 204.528 145.624 205.112 145.624 205.8C145.624 206.48 145.72 207.064 145.912 207.552C146.112 208.04 146.384 208.416 146.728 208.68C147.072 208.944 147.464 209.076 147.904 209.076ZM155.808 210.144C155.08 210.144 154.452 209.964 153.924 209.604C153.404 209.236 153.004 208.728 152.724 208.08C152.444 207.424 152.304 206.664 152.304 205.8C152.304 204.936 152.444 204.18 152.724 203.532C153.004 202.876 153.404 202.368 153.924 202.008C154.452 201.64 155.08 201.456 155.808 201.456C156.544 201.456 157.168 201.64 157.68 202.008C158.2 202.368 158.6 202.876 158.88 203.532C159.168 204.18 159.312 204.936 159.312 205.8C159.312 206.664 159.168 207.424 158.88 208.08C158.6 208.728 158.2 209.236 157.68 209.604C157.168 209.964 156.544 210.144 155.808 210.144ZM155.808 209.076C156.248 209.076 156.636 208.944 156.972 208.68C157.316 208.416 157.584 208.04 157.776 207.552C157.976 207.064 158.076 206.48 158.076 205.8C158.076 205.112 157.976 204.528 157.776 204.048C157.584 203.56 157.316 203.188 156.972 202.932C156.636 202.668 156.248 202.536 155.808 202.536C155.368 202.536 154.976 202.668 154.632 202.932C154.288 203.188 154.016 203.56 153.816 204.048C153.624 204.528 153.528 205.112 153.528 205.8C153.528 206.48 153.624 207.064 153.816 207.552C154.016 208.04 154.288 208.416 154.632 208.68C154.976 208.944 155.368 209.076 155.808 209.076ZM163.374 210V201.6H166.23C166.902 201.6 167.454 201.712 167.886 201.936C168.326 202.16 168.65 202.464 168.858 202.848C169.066 203.224 169.17 203.656 169.17 204.144C169.17 204.608 169.066 205.032 168.858 205.416C168.65 205.8 168.33 206.108 167.898 206.34C167.466 206.564 166.91 206.676 166.23 206.676H164.574V210H163.374ZM164.574 205.68H166.182C166.822 205.68 167.274 205.54 167.538 205.26C167.81 204.98 167.946 204.608 167.946 204.144C167.946 203.656 167.81 203.276 167.538 203.004C167.274 202.732 166.822 202.596 166.182 202.596H164.574V205.68ZM170.248 210V201.6H171.664L174.46 207.288L177.244 201.6H178.66V210H177.46V203.712L174.916 208.848H173.992L171.448 203.736V210H170.248Z" fill="#A3AED0"/>
<rect x="48" y="175" width="4" height="41" rx="2" fill="#0BB783"/>
<path d="M63.088 256V244.8H67.296C68.2027 244.8 68.9493 244.955 69.536 245.264C70.1333 245.563 70.576 245.979 70.864 246.512C71.1627 247.035 71.312 247.627 71.312 248.288C71.312 248.907 71.168 249.483 70.88 250.016C70.6027 250.539 70.1653 250.96 69.568 251.28C68.9813 251.6 68.224 251.76 67.296 251.76H65.248V256H63.088ZM65.248 250.016H67.152C67.8453 250.016 68.3413 249.861 68.64 249.552C68.9493 249.243 69.104 248.821 69.104 248.288C69.104 247.744 68.9493 247.323 68.64 247.024C68.3413 246.715 67.8453 246.56 67.152 246.56H65.248V250.016ZM72.5641 256V247.968H74.4841L74.6761 249.456C74.8788 249.104 75.1241 248.805 75.4121 248.56C75.7001 248.304 76.0308 248.112 76.4041 247.984C76.7881 247.845 77.2095 247.776 77.6681 247.776V250.064H76.9481C76.6281 250.064 76.3295 250.101 76.0521 250.176C75.7855 250.24 75.5508 250.357 75.3481 250.528C75.1455 250.699 74.9908 250.928 74.8841 251.216C74.7775 251.504 74.7241 251.867 74.7241 252.304V256H72.5641ZM82.5068 256.192C81.6961 256.192 80.9761 256.021 80.3467 255.68C79.7281 255.328 79.2427 254.843 78.8907 254.224C78.5494 253.595 78.3787 252.875 78.3787 252.064C78.3787 251.221 78.5494 250.48 78.8907 249.84C79.2321 249.2 79.7121 248.699 80.3307 248.336C80.9601 247.963 81.6854 247.776 82.5068 247.776C83.3067 247.776 84.0054 247.952 84.6027 248.304C85.2001 248.645 85.6641 249.115 85.9948 249.712C86.3361 250.309 86.5068 250.987 86.5068 251.744C86.5068 251.851 86.5014 251.973 86.4908 252.112C86.4908 252.24 86.4854 252.373 86.4748 252.512H79.9147V251.184H84.3148C84.2934 250.683 84.1121 250.283 83.7708 249.984C83.4294 249.675 83.0134 249.52 82.5227 249.52C82.1494 249.52 81.8081 249.605 81.4987 249.776C81.1894 249.947 80.9441 250.203 80.7627 250.544C80.5921 250.875 80.5067 251.296 80.5067 251.808V252.272C80.5067 252.709 80.5867 253.093 80.7467 253.424C80.9174 253.744 81.1521 253.995 81.4507 254.176C81.7494 254.347 82.0961 254.432 82.4907 254.432C82.8854 254.432 83.2107 254.347 83.4668 254.176C83.7334 254.005 83.9361 253.781 84.0747 253.504H86.2668C86.1174 254.016 85.8668 254.475 85.5148 254.88C85.1628 255.285 84.7308 255.605 84.2188 255.84C83.7067 256.075 83.1361 256.192 82.5068 256.192ZM91.2358 256.192C90.4998 256.192 89.8598 256.075 89.3158 255.84C88.7824 255.605 88.3558 255.285 88.0358 254.88C87.7264 254.464 87.5504 253.989 87.5078 253.456H89.6518C89.7051 253.659 89.7958 253.845 89.9238 254.016C90.0518 254.176 90.2224 254.304 90.4358 254.4C90.6598 254.496 90.9158 254.544 91.2038 254.544C91.4918 254.544 91.7264 254.507 91.9078 254.432C92.0891 254.347 92.2224 254.24 92.3078 254.112C92.4038 253.973 92.4518 253.829 92.4518 253.68C92.4518 253.445 92.3878 253.269 92.2598 253.152C92.1318 253.035 91.9398 252.939 91.6838 252.864C91.4384 252.789 91.1451 252.715 90.8038 252.64C90.4304 252.565 90.0571 252.475 89.6838 252.368C89.3211 252.251 88.9904 252.107 88.6918 251.936C88.4038 251.765 88.1744 251.547 88.0038 251.28C87.8331 251.013 87.7478 250.683 87.7478 250.288C87.7478 249.819 87.8758 249.392 88.1318 249.008C88.3878 248.624 88.7611 248.325 89.2518 248.112C89.7424 247.888 90.3291 247.776 91.0118 247.776C91.9824 247.776 92.7504 247.995 93.3158 248.432C93.8918 248.869 94.2278 249.472 94.3238 250.24H92.2918C92.2384 249.984 92.0998 249.787 91.8758 249.648C91.6518 249.509 91.3638 249.44 91.0118 249.44C90.6278 249.44 90.3344 249.509 90.1318 249.648C89.9398 249.787 89.8438 249.963 89.8438 250.176C89.8438 250.325 89.9078 250.459 90.0358 250.576C90.1638 250.693 90.3504 250.795 90.5958 250.88C90.8411 250.955 91.1398 251.029 91.4918 251.104C92.1104 251.232 92.6491 251.376 93.1078 251.536C93.5771 251.696 93.9451 251.931 94.2118 252.24C94.4784 252.539 94.6118 252.976 94.6118 253.552C94.6224 254.064 94.4891 254.523 94.2118 254.928C93.9344 255.323 93.5398 255.632 93.0278 255.856C92.5264 256.08 91.9291 256.192 91.2358 256.192ZM99.9918 256.192C99.1811 256.192 98.4611 256.021 97.8318 255.68C97.2131 255.328 96.7278 254.843 96.3758 254.224C96.0344 253.595 95.8638 252.875 95.8638 252.064C95.8638 251.221 96.0344 250.48 96.3758 249.84C96.7171 249.2 97.1971 248.699 97.8158 248.336C98.4451 247.963 99.1704 247.776 99.9918 247.776C100.792 247.776 101.49 247.952 102.088 248.304C102.685 248.645 103.149 249.115 103.48 249.712C103.821 250.309 103.992 250.987 103.992 251.744C103.992 251.851 103.986 251.973 103.976 252.112C103.976 252.24 103.97 252.373 103.96 252.512H97.3998V251.184H101.8C101.778 250.683 101.597 250.283 101.256 249.984C100.914 249.675 100.498 249.52 100.008 249.52C99.6344 249.52 99.2931 249.605 98.9838 249.776C98.6744 249.947 98.4291 250.203 98.2478 250.544C98.0771 250.875 97.9918 251.296 97.9918 251.808V252.272C97.9918 252.709 98.0718 253.093 98.2318 253.424C98.4024 253.744 98.6371 253.995 98.9358 254.176C99.2344 254.347 99.5811 254.432 99.9758 254.432C100.37 254.432 100.696 254.347 100.952 254.176C101.218 254.005 101.421 253.781 101.56 253.504H103.752C103.602 254.016 103.352 254.475 103 254.88C102.648 255.285 102.216 255.605 101.704 255.84C101.192 256.075 100.621 256.192 99.9918 256.192ZM105.425 256V247.968H107.329L107.489 249.28C107.734 248.821 108.081 248.459 108.529 248.192C108.987 247.915 109.531 247.776 110.161 247.776C110.833 247.776 111.398 247.915 111.857 248.192C112.315 248.469 112.662 248.875 112.897 249.408C113.142 249.941 113.265 250.603 113.265 251.392V256H111.121V251.584C111.121 250.944 110.982 250.453 110.705 250.112C110.438 249.771 110.022 249.6 109.457 249.6C109.094 249.6 108.769 249.685 108.481 249.856C108.203 250.027 107.985 250.272 107.825 250.592C107.665 250.901 107.585 251.285 107.585 251.744V256H105.425ZM118.58 256C118.025 256 117.535 255.915 117.108 255.744C116.681 255.563 116.351 255.269 116.116 254.864C115.881 254.448 115.764 253.883 115.764 253.168V249.776H114.388V247.968H115.764L116.02 245.776H117.924V247.968H120.052V249.776H117.924V253.2C117.924 253.563 118.004 253.813 118.164 253.952C118.324 254.091 118.596 254.16 118.98 254.16H120.02V256H118.58ZM124.255 256.192C123.583 256.192 123.028 256.085 122.591 255.872C122.153 255.648 121.828 255.355 121.615 254.992C121.401 254.619 121.295 254.213 121.295 253.776C121.295 253.275 121.417 252.843 121.663 252.48C121.919 252.107 122.303 251.813 122.815 251.6C123.327 251.387 123.967 251.28 124.735 251.28H126.735C126.735 250.885 126.681 250.56 126.575 250.304C126.468 250.048 126.303 249.856 126.079 249.728C125.855 249.6 125.556 249.536 125.183 249.536C124.777 249.536 124.431 249.627 124.143 249.808C123.865 249.979 123.689 250.245 123.615 250.608H121.519C121.583 250.032 121.775 249.536 122.095 249.12C122.425 248.693 122.857 248.363 123.391 248.128C123.924 247.893 124.527 247.776 125.199 247.776C125.956 247.776 126.612 247.904 127.167 248.16C127.721 248.405 128.148 248.773 128.447 249.264C128.745 249.744 128.895 250.331 128.895 251.024V256H127.071L126.831 254.768C126.713 254.981 126.575 255.173 126.415 255.344C126.255 255.515 126.068 255.664 125.855 255.792C125.641 255.92 125.401 256.016 125.135 256.08C124.868 256.155 124.575 256.192 124.255 256.192ZM124.767 254.528C125.044 254.528 125.289 254.48 125.503 254.384C125.727 254.277 125.919 254.139 126.079 253.968C126.239 253.787 126.361 253.584 126.447 253.36C126.543 253.125 126.607 252.88 126.639 252.624V252.608H124.991C124.66 252.608 124.388 252.651 124.175 252.736C123.972 252.811 123.823 252.923 123.727 253.072C123.631 253.221 123.583 253.392 123.583 253.584C123.583 253.787 123.631 253.957 123.727 254.096C123.823 254.235 123.961 254.341 124.143 254.416C124.324 254.491 124.532 254.528 124.767 254.528ZM134.096 256C133.542 256 133.051 255.915 132.624 255.744C132.198 255.563 131.867 255.269 131.632 254.864C131.398 254.448 131.28 253.883 131.28 253.168V249.776H129.904V247.968H131.28L131.536 245.776H133.44V247.968H135.568V249.776H133.44V253.2C133.44 253.563 133.52 253.813 133.68 253.952C133.84 254.091 134.112 254.16 134.496 254.16H135.536V256H134.096ZM137.099 256V247.968H139.259V256H137.099ZM138.187 246.848C137.792 246.848 137.472 246.736 137.227 246.512C136.982 246.277 136.859 245.984 136.859 245.632C136.859 245.28 136.982 244.992 137.227 244.768C137.472 244.533 137.792 244.416 138.187 244.416C138.582 244.416 138.902 244.533 139.147 244.768C139.403 244.992 139.531 245.28 139.531 245.632C139.531 245.984 139.403 246.277 139.147 246.512C138.902 246.736 138.582 246.848 138.187 246.848ZM144.914 256.192C144.146 256.192 143.453 256.016 142.834 255.664C142.226 255.301 141.741 254.805 141.378 254.176C141.026 253.536 140.85 252.805 140.85 251.984C140.85 251.152 141.026 250.421 141.378 249.792C141.741 249.163 142.231 248.672 142.85 248.32C143.469 247.957 144.162 247.776 144.93 247.776C145.709 247.776 146.402 247.957 147.01 248.32C147.629 248.672 148.114 249.163 148.466 249.792C148.829 250.421 149.01 251.152 149.01 251.984C149.01 252.805 148.829 253.536 148.466 254.176C148.114 254.805 147.629 255.301 147.01 255.664C146.391 256.016 145.693 256.192 144.914 256.192ZM144.914 254.32C145.266 254.32 145.581 254.235 145.858 254.064C146.146 253.893 146.375 253.632 146.546 253.28C146.717 252.928 146.802 252.496 146.802 251.984C146.802 251.461 146.717 251.029 146.546 250.688C146.386 250.336 146.162 250.075 145.874 249.904C145.597 249.733 145.282 249.648 144.93 249.648C144.589 249.648 144.274 249.733 143.986 249.904C143.698 250.075 143.469 250.336 143.298 250.688C143.127 251.029 143.042 251.461 143.042 251.984C143.042 252.496 143.127 252.928 143.298 253.28C143.469 253.632 143.693 253.893 143.97 254.064C144.258 254.235 144.573 254.32 144.914 254.32ZM150.552 256V247.968H152.456L152.616 249.28C152.861 248.821 153.208 248.459 153.656 248.192C154.114 247.915 154.658 247.776 155.288 247.776C155.96 247.776 156.525 247.915 156.984 248.192C157.442 248.469 157.789 248.875 158.024 249.408C158.269 249.941 158.392 250.603 158.392 251.392V256H156.248V251.584C156.248 250.944 156.109 250.453 155.832 250.112C155.565 249.771 155.149 249.6 154.584 249.6C154.221 249.6 153.896 249.685 153.608 249.856C153.33 250.027 153.112 250.272 152.952 250.592C152.792 250.901 152.712 251.285 152.712 251.744V256H150.552ZM163.569 256V244.8H167.361C168.662 244.8 169.734 245.035 170.577 245.504C171.43 245.963 172.059 246.613 172.465 247.456C172.881 248.288 173.089 249.269 173.089 250.4C173.089 251.531 172.881 252.517 172.465 253.36C172.059 254.192 171.43 254.843 170.577 255.312C169.734 255.771 168.662 256 167.361 256H163.569ZM165.729 254.144H167.233C168.15 254.144 168.875 253.995 169.409 253.696C169.942 253.397 170.321 252.971 170.545 252.416C170.769 251.851 170.881 251.179 170.881 250.4C170.881 249.611 170.769 248.939 170.545 248.384C170.321 247.819 169.942 247.387 169.409 247.088C168.875 246.789 168.15 246.64 167.233 246.64H165.729V254.144ZM178.417 256.192C177.606 256.192 176.886 256.021 176.257 255.68C175.638 255.328 175.153 254.843 174.801 254.224C174.459 253.595 174.289 252.875 174.289 252.064C174.289 251.221 174.459 250.48 174.801 249.84C175.142 249.2 175.622 248.699 176.241 248.336C176.87 247.963 177.595 247.776 178.417 247.776C179.217 247.776 179.915 247.952 180.513 248.304C181.11 248.645 181.574 249.115 181.905 249.712C182.246 250.309 182.417 250.987 182.417 251.744C182.417 251.851 182.411 251.973 182.401 252.112C182.401 252.24 182.395 252.373 182.385 252.512H175.825V251.184H180.225C180.203 250.683 180.022 250.283 179.681 249.984C179.339 249.675 178.923 249.52 178.433 249.52C178.059 249.52 177.718 249.605 177.409 249.776C177.099 249.947 176.854 250.203 176.673 250.544C176.502 250.875 176.417 251.296 176.417 251.808V252.272C176.417 252.709 176.497 253.093 176.657 253.424C176.827 253.744 177.062 253.995 177.361 254.176C177.659 254.347 178.006 254.432 178.401 254.432C178.795 254.432 179.121 254.347 179.377 254.176C179.643 254.005 179.846 253.781 179.985 253.504H182.177C182.027 254.016 181.777 254.475 181.425 254.88C181.073 255.285 180.641 255.605 180.129 255.84C179.617 256.075 179.046 256.192 178.417 256.192ZM186.57 256.192C185.898 256.192 185.343 256.085 184.906 255.872C184.468 255.648 184.143 255.355 183.93 254.992C183.716 254.619 183.61 254.213 183.61 253.776C183.61 253.275 183.732 252.843 183.978 252.48C184.234 252.107 184.618 251.813 185.13 251.6C185.642 251.387 186.282 251.28 187.05 251.28H189.05C189.05 250.885 188.996 250.56 188.89 250.304C188.783 250.048 188.618 249.856 188.394 249.728C188.17 249.6 187.871 249.536 187.498 249.536C187.092 249.536 186.746 249.627 186.458 249.808C186.18 249.979 186.004 250.245 185.93 250.608H183.834C183.898 250.032 184.09 249.536 184.41 249.12C184.74 248.693 185.172 248.363 185.706 248.128C186.239 247.893 186.842 247.776 187.514 247.776C188.271 247.776 188.927 247.904 189.482 248.16C190.036 248.405 190.463 248.773 190.762 249.264C191.06 249.744 191.21 250.331 191.21 251.024V256H189.386L189.146 254.768C189.028 254.981 188.89 255.173 188.73 255.344C188.57 255.515 188.383 255.664 188.17 255.792C187.956 255.92 187.716 256.016 187.45 256.08C187.183 256.155 186.89 256.192 186.57 256.192ZM187.082 254.528C187.359 254.528 187.604 254.48 187.818 254.384C188.042 254.277 188.234 254.139 188.394 253.968C188.554 253.787 188.676 253.584 188.762 253.36C188.858 253.125 188.922 252.88 188.954 252.624V252.608H187.306C186.975 252.608 186.703 252.651 186.49 252.736C186.287 252.811 186.138 252.923 186.042 253.072C185.946 253.221 185.898 253.392 185.898 253.584C185.898 253.787 185.946 253.957 186.042 254.096C186.138 254.235 186.276 254.341 186.458 254.416C186.639 254.491 186.847 254.528 187.082 254.528ZM196.473 256.192C195.748 256.192 195.092 256.011 194.505 255.648C193.918 255.285 193.46 254.789 193.129 254.16C192.798 253.52 192.633 252.795 192.633 251.984C192.633 251.173 192.798 250.453 193.129 249.824C193.47 249.184 193.934 248.683 194.521 248.32C195.118 247.957 195.785 247.776 196.521 247.776C197.108 247.776 197.614 247.883 198.041 248.096C198.478 248.309 198.83 248.613 199.097 249.008V244.48H201.257V256H199.337L199.097 254.896C198.937 255.12 198.734 255.333 198.489 255.536C198.254 255.739 197.972 255.899 197.641 256.016C197.31 256.133 196.921 256.192 196.473 256.192ZM196.985 254.304C197.412 254.304 197.785 254.208 198.105 254.016C198.436 253.813 198.692 253.536 198.873 253.184C199.065 252.832 199.161 252.432 199.161 251.984C199.161 251.525 199.065 251.12 198.873 250.768C198.692 250.416 198.436 250.144 198.105 249.952C197.785 249.76 197.412 249.664 196.985 249.664C196.58 249.664 196.212 249.76 195.881 249.952C195.55 250.144 195.289 250.416 195.097 250.768C194.916 251.12 194.825 251.52 194.825 251.968C194.825 252.427 194.916 252.832 195.097 253.184C195.289 253.536 195.55 253.813 195.881 254.016C196.212 254.208 196.58 254.304 196.985 254.304ZM203.053 256V244.48H205.213V256H203.053ZM207.032 256V247.968H209.192V256H207.032ZM208.12 246.848C207.725 246.848 207.405 246.736 207.16 246.512C206.914 246.277 206.792 245.984 206.792 245.632C206.792 245.28 206.914 244.992 207.16 244.768C207.405 244.533 207.725 244.416 208.12 244.416C208.514 244.416 208.834 244.533 209.08 244.768C209.336 244.992 209.464 245.28 209.464 245.632C209.464 245.984 209.336 246.277 209.08 246.512C208.834 246.736 208.514 246.848 208.12 246.848ZM211.038 256V247.968H212.942L213.102 249.28C213.348 248.821 213.694 248.459 214.142 248.192C214.601 247.915 215.145 247.776 215.774 247.776C216.446 247.776 217.012 247.915 217.47 248.192C217.929 248.469 218.276 248.875 218.51 249.408C218.756 249.941 218.878 250.603 218.878 251.392V256H216.734V251.584C216.734 250.944 216.596 250.453 216.318 250.112C216.052 249.771 215.636 249.6 215.07 249.6C214.708 249.6 214.382 249.685 214.094 249.856C213.817 250.027 213.598 250.272 213.438 250.592C213.278 250.901 213.198 251.285 213.198 251.744V256H211.038ZM224.45 256.192C223.639 256.192 222.919 256.021 222.29 255.68C221.671 255.328 221.186 254.843 220.834 254.224C220.493 253.595 220.322 252.875 220.322 252.064C220.322 251.221 220.493 250.48 220.834 249.84C221.175 249.2 221.655 248.699 222.274 248.336C222.903 247.963 223.629 247.776 224.45 247.776C225.25 247.776 225.949 247.952 226.546 248.304C227.143 248.645 227.607 249.115 227.938 249.712C228.279 250.309 228.45 250.987 228.45 251.744C228.45 251.851 228.445 251.973 228.434 252.112C228.434 252.24 228.429 252.373 228.418 252.512H221.858V251.184H226.258C226.237 250.683 226.055 250.283 225.714 249.984C225.373 249.675 224.957 249.52 224.466 249.52C224.093 249.52 223.751 249.605 223.442 249.776C223.133 249.947 222.887 250.203 222.706 250.544C222.535 250.875 222.45 251.296 222.45 251.808V252.272C222.45 252.709 222.53 253.093 222.69 253.424C222.861 253.744 223.095 253.995 223.394 254.176C223.693 254.347 224.039 254.432 224.434 254.432C224.829 254.432 225.154 254.347 225.41 254.176C225.677 254.005 225.879 253.781 226.018 253.504H228.21C228.061 254.016 227.81 254.475 227.458 254.88C227.106 255.285 226.674 255.605 226.162 255.84C225.65 256.075 225.079 256.192 224.45 256.192Z" fill="#1B2559"/>
<path d="M66.08 275.144C65.352 275.144 64.724 274.964 64.196 274.604C63.676 274.236 63.276 273.728 62.996 273.08C62.716 272.424 62.576 271.664 62.576 270.8C62.576 269.936 62.716 269.18 62.996 268.532C63.276 267.876 63.676 267.368 64.196 267.008C64.724 266.64 65.352 266.456 66.08 266.456C66.816 266.456 67.44 266.64 67.952 267.008C68.472 267.368 68.872 267.876 69.152 268.532C69.44 269.18 69.584 269.936 69.584 270.8C69.584 271.664 69.44 272.424 69.152 273.08C68.872 273.728 68.472 274.236 67.952 274.604C67.44 274.964 66.816 275.144 66.08 275.144ZM66.08 274.076C66.52 274.076 66.908 273.944 67.244 273.68C67.588 273.416 67.856 273.04 68.048 272.552C68.248 272.064 68.348 271.48 68.348 270.8C68.348 270.112 68.248 269.528 68.048 269.048C67.856 268.56 67.588 268.188 67.244 267.932C66.908 267.668 66.52 267.536 66.08 267.536C65.64 267.536 65.248 267.668 64.904 267.932C64.56 268.188 64.288 268.56 64.088 269.048C63.896 269.528 63.8 270.112 63.8 270.8C63.8 271.48 63.896 272.064 64.088 272.552C64.288 273.04 64.56 273.416 64.904 273.68C65.248 273.944 65.64 274.076 66.08 274.076ZM73.4685 275.144C72.9325 275.144 72.4405 275.048 71.9925 274.856C71.5525 274.656 71.2005 274.36 70.9365 273.968C70.6805 273.568 70.5445 273.068 70.5285 272.468H71.7285C71.7365 272.772 71.8085 273.048 71.9445 273.296C72.0805 273.544 72.2765 273.744 72.5325 273.896C72.7965 274.04 73.1085 274.112 73.4685 274.112C73.8285 274.112 74.1285 274.044 74.3685 273.908C74.6165 273.772 74.8005 273.588 74.9205 273.356C75.0485 273.124 75.1125 272.864 75.1125 272.576C75.1125 272.224 75.0245 271.936 74.8485 271.712C74.6805 271.488 74.4485 271.32 74.1525 271.208C73.8645 271.096 73.5405 271.04 73.1805 271.04H72.5565V270.044H73.1805C73.6925 270.044 74.1005 269.928 74.4045 269.696C74.7085 269.456 74.8605 269.124 74.8605 268.7C74.8605 268.348 74.7405 268.06 74.5005 267.836C74.2685 267.604 73.9245 267.488 73.4685 267.488C73.0125 267.488 72.6525 267.616 72.3885 267.872C72.1245 268.128 71.9765 268.452 71.9445 268.844H70.7445C70.7685 268.372 70.8965 267.956 71.1285 267.596C71.3605 267.228 71.6765 266.948 72.0765 266.756C72.4765 266.556 72.9405 266.456 73.4685 266.456C74.0365 266.456 74.5085 266.556 74.8845 266.756C75.2685 266.948 75.5605 267.208 75.7605 267.536C75.9605 267.864 76.0605 268.224 76.0605 268.616C76.0605 268.912 76.0005 269.192 75.8805 269.456C75.7685 269.712 75.6085 269.932 75.4005 270.116C75.1925 270.3 74.9365 270.432 74.6325 270.512C74.9525 270.568 75.2365 270.692 75.4845 270.884C75.7405 271.068 75.9405 271.304 76.0845 271.592C76.2365 271.88 76.3125 272.212 76.3125 272.588C76.3125 273.044 76.2045 273.468 75.9885 273.86C75.7725 274.244 75.4525 274.556 75.0285 274.796C74.6125 275.028 74.0925 275.144 73.4685 275.144ZM78.1564 275.06C77.9324 275.06 77.7444 274.988 77.5924 274.844C77.4484 274.692 77.3764 274.512 77.3764 274.304C77.3764 274.088 77.4484 273.908 77.5924 273.764C77.7444 273.612 77.9324 273.536 78.1564 273.536C78.3884 273.536 78.5764 273.612 78.7204 273.764C78.8644 273.908 78.9364 274.088 78.9364 274.304C78.9364 274.512 78.8644 274.692 78.7204 274.844C78.5764 274.988 78.3884 275.06 78.1564 275.06ZM78.1564 270.224C77.9324 270.224 77.7444 270.152 77.5924 270.008C77.4484 269.856 77.3764 269.676 77.3764 269.468C77.3764 269.252 77.4484 269.072 77.5924 268.928C77.7444 268.776 77.9324 268.7 78.1564 268.7C78.3884 268.7 78.5764 268.776 78.7204 268.928C78.8644 269.072 78.9364 269.252 78.9364 269.468C78.9364 269.676 78.8644 269.856 78.7204 270.008C78.5764 270.152 78.3884 270.224 78.1564 270.224ZM83.3483 275.144C82.6203 275.144 81.9923 274.964 81.4643 274.604C80.9443 274.236 80.5443 273.728 80.2643 273.08C79.9843 272.424 79.8443 271.664 79.8443 270.8C79.8443 269.936 79.9843 269.18 80.2643 268.532C80.5443 267.876 80.9443 267.368 81.4643 267.008C81.9923 266.64 82.6203 266.456 83.3483 266.456C84.0843 266.456 84.7083 266.64 85.2203 267.008C85.7403 267.368 86.1403 267.876 86.4203 268.532C86.7083 269.18 86.8523 269.936 86.8523 270.8C86.8523 271.664 86.7083 272.424 86.4203 273.08C86.1403 273.728 85.7403 274.236 85.2203 274.604C84.7083 274.964 84.0843 275.144 83.3483 275.144ZM83.3483 274.076C83.7883 274.076 84.1763 273.944 84.5123 273.68C84.8563 273.416 85.1243 273.04 85.3163 272.552C85.5163 272.064 85.6163 271.48 85.6163 270.8C85.6163 270.112 85.5163 269.528 85.3163 269.048C85.1243 268.56 84.8563 268.188 84.5123 267.932C84.1763 267.668 83.7883 267.536 83.3483 267.536C82.9083 267.536 82.5163 267.668 82.1723 267.932C81.8283 268.188 81.5563 268.56 81.3563 269.048C81.1643 269.528 81.0683 270.112 81.0683 270.8C81.0683 271.48 81.1643 272.064 81.3563 272.552C81.5563 273.04 81.8283 273.416 82.1723 273.68C82.5163 273.944 82.9083 274.076 83.3483 274.076ZM91.2528 275.144C90.5248 275.144 89.8968 274.964 89.3688 274.604C88.8488 274.236 88.4488 273.728 88.1688 273.08C87.8888 272.424 87.7488 271.664 87.7488 270.8C87.7488 269.936 87.8888 269.18 88.1688 268.532C88.4488 267.876 88.8488 267.368 89.3688 267.008C89.8968 266.64 90.5248 266.456 91.2528 266.456C91.9888 266.456 92.6128 266.64 93.1248 267.008C93.6448 267.368 94.0448 267.876 94.3248 268.532C94.6128 269.18 94.7568 269.936 94.7568 270.8C94.7568 271.664 94.6128 272.424 94.3248 273.08C94.0448 273.728 93.6448 274.236 93.1248 274.604C92.6128 274.964 91.9888 275.144 91.2528 275.144ZM91.2528 274.076C91.6928 274.076 92.0808 273.944 92.4168 273.68C92.7608 273.416 93.0288 273.04 93.2208 272.552C93.4208 272.064 93.5208 271.48 93.5208 270.8C93.5208 270.112 93.4208 269.528 93.2208 269.048C93.0288 268.56 92.7608 268.188 92.4168 267.932C92.0808 267.668 91.6928 267.536 91.2528 267.536C90.8128 267.536 90.4208 267.668 90.0768 267.932C89.7328 268.188 89.4608 268.56 89.2608 269.048C89.0688 269.528 88.9728 270.112 88.9728 270.8C88.9728 271.48 89.0688 272.064 89.2608 272.552C89.4608 273.04 89.7328 273.416 90.0768 273.68C90.4208 273.944 90.8128 274.076 91.2528 274.076ZM98.8191 275V266.6H101.675C102.347 266.6 102.899 266.712 103.331 266.936C103.771 267.16 104.095 267.464 104.303 267.848C104.511 268.224 104.615 268.656 104.615 269.144C104.615 269.608 104.511 270.032 104.303 270.416C104.095 270.8 103.775 271.108 103.343 271.34C102.911 271.564 102.355 271.676 101.675 271.676H100.019V275H98.8191ZM100.019 270.68H101.627C102.267 270.68 102.719 270.54 102.983 270.26C103.255 269.98 103.391 269.608 103.391 269.144C103.391 268.656 103.255 268.276 102.983 268.004C102.719 267.732 102.267 267.596 101.627 267.596H100.019V270.68ZM105.692 275V266.6H107.108L109.904 272.288L112.688 266.6H114.104V275H112.904V268.712L110.36 273.848H109.436L106.892 268.736V275H105.692ZM118.501 271.892V270.884H123.349V271.892H118.501ZM130.917 275.144C130.189 275.144 129.561 274.964 129.033 274.604C128.513 274.236 128.113 273.728 127.833 273.08C127.553 272.424 127.413 271.664 127.413 270.8C127.413 269.936 127.553 269.18 127.833 268.532C128.113 267.876 128.513 267.368 129.033 267.008C129.561 266.64 130.189 266.456 130.917 266.456C131.653 266.456 132.277 266.64 132.789 267.008C133.309 267.368 133.709 267.876 133.989 268.532C134.277 269.18 134.421 269.936 134.421 270.8C134.421 271.664 134.277 272.424 133.989 273.08C133.709 273.728 133.309 274.236 132.789 274.604C132.277 274.964 131.653 275.144 130.917 275.144ZM130.917 274.076C131.357 274.076 131.745 273.944 132.081 273.68C132.425 273.416 132.693 273.04 132.885 272.552C133.085 272.064 133.185 271.48 133.185 270.8C133.185 270.112 133.085 269.528 132.885 269.048C132.693 268.56 132.425 268.188 132.081 267.932C131.745 267.668 131.357 267.536 130.917 267.536C130.477 267.536 130.085 267.668 129.741 267.932C129.397 268.188 129.125 268.56 128.925 269.048C128.733 269.528 128.637 270.112 128.637 270.8C128.637 271.48 128.733 272.064 128.925 272.552C129.125 273.04 129.397 273.416 129.741 273.68C130.085 273.944 130.477 274.076 130.917 274.076ZM139.457 275V273.284H135.233V272.348L139.265 266.6H140.645V272.24H141.845V273.284H140.645V275H139.457ZM136.541 272.24H139.517V267.92L136.541 272.24ZM143.309 275.06C143.085 275.06 142.897 274.988 142.745 274.844C142.601 274.692 142.529 274.512 142.529 274.304C142.529 274.088 142.601 273.908 142.745 273.764C142.897 273.612 143.085 273.536 143.309 273.536C143.541 273.536 143.729 273.612 143.873 273.764C144.017 273.908 144.089 274.088 144.089 274.304C144.089 274.512 144.017 274.692 143.873 274.844C143.729 274.988 143.541 275.06 143.309 275.06ZM143.309 270.224C143.085 270.224 142.897 270.152 142.745 270.008C142.601 269.856 142.529 269.676 142.529 269.468C142.529 269.252 142.601 269.072 142.745 268.928C142.897 268.776 143.085 268.7 143.309 268.7C143.541 268.7 143.729 268.776 143.873 268.928C144.017 269.072 144.089 269.252 144.089 269.468C144.089 269.676 144.017 269.856 143.873 270.008C143.729 270.152 143.541 270.224 143.309 270.224ZM148.501 275.144C147.773 275.144 147.145 274.964 146.617 274.604C146.097 274.236 145.697 273.728 145.417 273.08C145.137 272.424 144.997 271.664 144.997 270.8C144.997 269.936 145.137 269.18 145.417 268.532C145.697 267.876 146.097 267.368 146.617 267.008C147.145 266.64 147.773 266.456 148.501 266.456C149.237 266.456 149.861 266.64 150.373 267.008C150.893 267.368 151.293 267.876 151.573 268.532C151.861 269.18 152.005 269.936 152.005 270.8C152.005 271.664 151.861 272.424 151.573 273.08C151.293 273.728 150.893 274.236 150.373 274.604C149.861 274.964 149.237 275.144 148.501 275.144ZM148.501 274.076C148.941 274.076 149.329 273.944 149.665 273.68C150.009 273.416 150.277 273.04 150.469 272.552C150.669 272.064 150.769 271.48 150.769 270.8C150.769 270.112 150.669 269.528 150.469 269.048C150.277 268.56 150.009 268.188 149.665 267.932C149.329 267.668 148.941 267.536 148.501 267.536C148.061 267.536 147.669 267.668 147.325 267.932C146.981 268.188 146.709 268.56 146.509 269.048C146.317 269.528 146.221 270.112 146.221 270.8C146.221 271.48 146.317 272.064 146.509 272.552C146.709 273.04 146.981 273.416 147.325 273.68C147.669 273.944 148.061 274.076 148.501 274.076ZM156.406 275.144C155.678 275.144 155.05 274.964 154.522 274.604C154.002 274.236 153.602 273.728 153.322 273.08C153.042 272.424 152.902 271.664 152.902 270.8C152.902 269.936 153.042 269.18 153.322 268.532C153.602 267.876 154.002 267.368 154.522 267.008C155.05 266.64 155.678 266.456 156.406 266.456C157.142 266.456 157.766 266.64 158.278 267.008C158.798 267.368 159.198 267.876 159.478 268.532C159.766 269.18 159.91 269.936 159.91 270.8C159.91 271.664 159.766 272.424 159.478 273.08C159.198 273.728 158.798 274.236 158.278 274.604C157.766 274.964 157.142 275.144 156.406 275.144ZM156.406 274.076C156.846 274.076 157.234 273.944 157.57 273.68C157.914 273.416 158.182 273.04 158.374 272.552C158.574 272.064 158.674 271.48 158.674 270.8C158.674 270.112 158.574 269.528 158.374 269.048C158.182 268.56 157.914 268.188 157.57 267.932C157.234 267.668 156.846 267.536 156.406 267.536C155.966 267.536 155.574 267.668 155.23 267.932C154.886 268.188 154.614 268.56 154.414 269.048C154.222 269.528 154.126 270.112 154.126 270.8C154.126 271.48 154.222 272.064 154.414 272.552C154.614 273.04 154.886 273.416 155.23 273.68C155.574 273.944 155.966 274.076 156.406 274.076ZM163.972 275V266.6H166.828C167.5 266.6 168.052 266.712 168.484 266.936C168.924 267.16 169.248 267.464 169.456 267.848C169.664 268.224 169.768 268.656 169.768 269.144C169.768 269.608 169.664 270.032 169.456 270.416C169.248 270.8 168.928 271.108 168.496 271.34C168.064 271.564 167.508 271.676 166.828 271.676H165.172V275H163.972ZM165.172 270.68H166.78C167.42 270.68 167.872 270.54 168.136 270.26C168.408 269.98 168.544 269.608 168.544 269.144C168.544 268.656 168.408 268.276 168.136 268.004C167.872 267.732 167.42 267.596 166.78 267.596H165.172V270.68ZM170.845 275V266.6H172.261L175.057 272.288L177.841 266.6H179.257V275H178.057V268.712L175.513 273.848H174.589L172.045 268.736V275H170.845Z" fill="#A3AED0"/>
<rect x="48" y="240" width="4" height="41" rx="2" fill="#FF181C"/>
<path d="M331 293L345.17 293L341.59 296.59L343 298L349 292L343 286L341.59 287.41L345.17 291L331 291L331 293Z" fill="#4318FF"/>
<path d="M227.32 297L223.24 285.8H225.544L228.648 294.792L231.768 285.8H234.056L229.976 297H227.32ZM235.065 297V288.968H237.225V297H235.065ZM236.153 287.848C235.759 287.848 235.439 287.736 235.193 287.512C234.948 287.277 234.825 286.984 234.825 286.632C234.825 286.28 234.948 285.992 235.193 285.768C235.439 285.533 235.759 285.416 236.153 285.416C236.548 285.416 236.868 285.533 237.113 285.768C237.369 285.992 237.497 286.28 237.497 286.632C237.497 286.984 237.369 287.277 237.113 287.512C236.868 287.736 236.548 287.848 236.153 287.848ZM242.944 297.192C242.134 297.192 241.414 297.021 240.784 296.68C240.166 296.328 239.68 295.843 239.328 295.224C238.987 294.595 238.816 293.875 238.816 293.064C238.816 292.221 238.987 291.48 239.328 290.84C239.67 290.2 240.15 289.699 240.768 289.336C241.398 288.963 242.123 288.776 242.944 288.776C243.744 288.776 244.443 288.952 245.04 289.304C245.638 289.645 246.102 290.115 246.432 290.712C246.774 291.309 246.944 291.987 246.944 292.744C246.944 292.851 246.939 292.973 246.928 293.112C246.928 293.24 246.923 293.373 246.912 293.512H240.352V292.184H244.752C244.731 291.683 244.55 291.283 244.208 290.984C243.867 290.675 243.451 290.52 242.96 290.52C242.587 290.52 242.246 290.605 241.936 290.776C241.627 290.947 241.382 291.203 241.2 291.544C241.03 291.875 240.944 292.296 240.944 292.808V293.272C240.944 293.709 241.024 294.093 241.184 294.424C241.355 294.744 241.59 294.995 241.888 295.176C242.187 295.347 242.534 295.432 242.928 295.432C243.323 295.432 243.648 295.347 243.904 295.176C244.171 295.005 244.374 294.781 244.512 294.504H246.704C246.555 295.016 246.304 295.475 245.952 295.88C245.6 296.285 245.168 296.605 244.656 296.84C244.144 297.075 243.574 297.192 242.944 297.192ZM249.633 297L247.265 288.968H249.409L250.977 295.528L250.561 295.512L252.353 288.968H254.753L256.545 295.512L256.113 295.528L257.697 288.968H259.841L257.473 297H255.233L253.313 290.248H253.793L251.873 297H249.633ZM267.004 297.192C266.332 297.192 265.777 297.085 265.34 296.872C264.903 296.648 264.577 296.355 264.364 295.992C264.151 295.619 264.044 295.213 264.044 294.776C264.044 294.275 264.167 293.843 264.412 293.48C264.668 293.107 265.052 292.813 265.564 292.6C266.076 292.387 266.716 292.28 267.484 292.28H269.484C269.484 291.885 269.431 291.56 269.324 291.304C269.217 291.048 269.052 290.856 268.828 290.728C268.604 290.6 268.305 290.536 267.932 290.536C267.527 290.536 267.18 290.627 266.892 290.808C266.615 290.979 266.439 291.245 266.364 291.608H264.268C264.332 291.032 264.524 290.536 264.844 290.12C265.175 289.693 265.607 289.363 266.14 289.128C266.673 288.893 267.276 288.776 267.948 288.776C268.705 288.776 269.361 288.904 269.916 289.16C270.471 289.405 270.897 289.773 271.196 290.264C271.495 290.744 271.644 291.331 271.644 292.024V297H269.82L269.58 295.768C269.463 295.981 269.324 296.173 269.164 296.344C269.004 296.515 268.817 296.664 268.604 296.792C268.391 296.92 268.151 297.016 267.884 297.08C267.617 297.155 267.324 297.192 267.004 297.192ZM267.516 295.528C267.793 295.528 268.039 295.48 268.252 295.384C268.476 295.277 268.668 295.139 268.828 294.968C268.988 294.787 269.111 294.584 269.196 294.36C269.292 294.125 269.356 293.88 269.388 293.624V293.608H267.74C267.409 293.608 267.137 293.651 266.924 293.736C266.721 293.811 266.572 293.923 266.476 294.072C266.38 294.221 266.332 294.392 266.332 294.584C266.332 294.787 266.38 294.957 266.476 295.096C266.572 295.235 266.711 295.341 266.892 295.416C267.073 295.491 267.281 295.528 267.516 295.528ZM273.324 297V285.48H275.484V297H273.324ZM277.253 297V285.48H279.413V297H277.253ZM287.269 297V287.544H284.005V285.8H292.693V287.544H289.429V297H287.269ZM295.185 297.192C294.513 297.192 293.959 297.085 293.521 296.872C293.084 296.648 292.759 296.355 292.545 295.992C292.332 295.619 292.225 295.213 292.225 294.776C292.225 294.275 292.348 293.843 292.593 293.48C292.849 293.107 293.233 292.813 293.745 292.6C294.257 292.387 294.897 292.28 295.665 292.28H297.665C297.665 291.885 297.612 291.56 297.505 291.304C297.399 291.048 297.233 290.856 297.009 290.728C296.785 290.6 296.487 290.536 296.113 290.536C295.708 290.536 295.361 290.627 295.073 290.808C294.796 290.979 294.62 291.245 294.545 291.608H292.449C292.513 291.032 292.705 290.536 293.025 290.12C293.356 289.693 293.788 289.363 294.321 289.128C294.855 288.893 295.457 288.776 296.129 288.776C296.887 288.776 297.543 288.904 298.097 289.16C298.652 289.405 299.079 289.773 299.377 290.264C299.676 290.744 299.825 291.331 299.825 292.024V297H298.001L297.761 295.768C297.644 295.981 297.505 296.173 297.345 296.344C297.185 296.515 296.999 296.664 296.785 296.792C296.572 296.92 296.332 297.016 296.065 297.08C295.799 297.155 295.505 297.192 295.185 297.192ZM295.697 295.528C295.975 295.528 296.22 295.48 296.433 295.384C296.657 295.277 296.849 295.139 297.009 294.968C297.169 294.787 297.292 294.584 297.377 294.36C297.473 294.125 297.537 293.88 297.569 293.624V293.608H295.921C295.591 293.608 295.319 293.651 295.105 293.736C294.903 293.811 294.753 293.923 294.657 294.072C294.561 294.221 294.513 294.392 294.513 294.584C294.513 294.787 294.561 294.957 294.657 295.096C294.753 295.235 294.892 295.341 295.073 295.416C295.255 295.491 295.463 295.528 295.697 295.528ZM304.801 297.192C304.065 297.192 303.425 297.075 302.881 296.84C302.347 296.605 301.921 296.285 301.601 295.88C301.291 295.464 301.115 294.989 301.073 294.456H303.217C303.27 294.659 303.361 294.845 303.489 295.016C303.617 295.176 303.787 295.304 304.001 295.4C304.225 295.496 304.481 295.544 304.769 295.544C305.057 295.544 305.291 295.507 305.473 295.432C305.654 295.347 305.787 295.24 305.873 295.112C305.969 294.973 306.017 294.829 306.017 294.68C306.017 294.445 305.953 294.269 305.825 294.152C305.697 294.035 305.505 293.939 305.249 293.864C305.003 293.789 304.71 293.715 304.369 293.64C303.995 293.565 303.622 293.475 303.249 293.368C302.886 293.251 302.555 293.107 302.257 292.936C301.969 292.765 301.739 292.547 301.569 292.28C301.398 292.013 301.313 291.683 301.313 291.288C301.313 290.819 301.441 290.392 301.697 290.008C301.953 289.624 302.326 289.325 302.817 289.112C303.307 288.888 303.894 288.776 304.577 288.776C305.547 288.776 306.315 288.995 306.881 289.432C307.457 289.869 307.793 290.472 307.889 291.24H305.857C305.803 290.984 305.665 290.787 305.441 290.648C305.217 290.509 304.929 290.44 304.577 290.44C304.193 290.44 303.899 290.509 303.697 290.648C303.505 290.787 303.409 290.963 303.409 291.176C303.409 291.325 303.473 291.459 303.601 291.576C303.729 291.693 303.915 291.795 304.161 291.88C304.406 291.955 304.705 292.029 305.057 292.104C305.675 292.232 306.214 292.376 306.673 292.536C307.142 292.696 307.51 292.931 307.777 293.24C308.043 293.539 308.177 293.976 308.177 294.552C308.187 295.064 308.054 295.523 307.777 295.928C307.499 296.323 307.105 296.632 306.593 296.856C306.091 297.08 305.494 297.192 304.801 297.192ZM314.965 297L311.525 292.6L314.597 288.968H317.157L313.173 293.496V291.784L317.653 297H314.965ZM309.685 297V285.48H311.845V297H309.685ZM321.52 297.192C320.784 297.192 320.144 297.075 319.6 296.84C319.067 296.605 318.64 296.285 318.32 295.88C318.011 295.464 317.835 294.989 317.792 294.456H319.936C319.989 294.659 320.08 294.845 320.208 295.016C320.336 295.176 320.507 295.304 320.72 295.4C320.944 295.496 321.2 295.544 321.488 295.544C321.776 295.544 322.011 295.507 322.192 295.432C322.373 295.347 322.507 295.24 322.592 295.112C322.688 294.973 322.736 294.829 322.736 294.68C322.736 294.445 322.672 294.269 322.544 294.152C322.416 294.035 322.224 293.939 321.968 293.864C321.723 293.789 321.429 293.715 321.088 293.64C320.715 293.565 320.341 293.475 319.968 293.368C319.605 293.251 319.275 293.107 318.976 292.936C318.688 292.765 318.459 292.547 318.288 292.28C318.117 292.013 318.032 291.683 318.032 291.288C318.032 290.819 318.16 290.392 318.416 290.008C318.672 289.624 319.045 289.325 319.536 289.112C320.027 288.888 320.613 288.776 321.296 288.776C322.267 288.776 323.035 288.995 323.6 289.432C324.176 289.869 324.512 290.472 324.608 291.24H322.576C322.523 290.984 322.384 290.787 322.16 290.648C321.936 290.509 321.648 290.44 321.296 290.44C320.912 290.44 320.619 290.509 320.416 290.648C320.224 290.787 320.128 290.963 320.128 291.176C320.128 291.325 320.192 291.459 320.32 291.576C320.448 291.693 320.635 291.795 320.88 291.88C321.125 291.955 321.424 292.029 321.776 292.104C322.395 292.232 322.933 292.376 323.392 292.536C323.861 292.696 324.229 292.931 324.496 293.24C324.763 293.539 324.896 293.976 324.896 294.552C324.907 295.064 324.773 295.523 324.496 295.928C324.219 296.323 323.824 296.632 323.312 296.856C322.811 297.08 322.213 297.192 321.52 297.192Z" fill="#4318FF"/>
<path d="M55.48 67.264C54.3507 67.264 53.324 67.0367 52.4 66.582C51.476 66.1273 50.7427 65.4453 50.2 64.536C49.6573 63.6267 49.386 62.468 49.386 61.06V51.6H52.356V61.082C52.356 61.8447 52.4807 62.49 52.73 63.018C52.9793 63.5313 53.3387 63.9127 53.808 64.162C54.292 64.4113 54.864 64.536 55.524 64.536C56.1987 64.536 56.7707 64.4113 57.24 64.162C57.724 63.9127 58.0907 63.5313 58.34 63.018C58.604 62.49 58.736 61.8447 58.736 61.082V51.6H61.706V61.06C61.706 62.468 61.42 63.6267 60.848 64.536C60.2907 65.4453 59.5427 66.1273 58.604 66.582C57.6653 67.0367 56.624 67.264 55.48 67.264ZM64.0505 71.84V56.044H66.6905L67.0205 57.584C67.2552 57.2613 67.5339 56.968 67.8565 56.704C68.1792 56.4253 68.5679 56.2053 69.0225 56.044C69.4772 55.868 70.0052 55.78 70.6065 55.78C71.6332 55.78 72.5425 56.0367 73.3345 56.55C74.1412 57.0487 74.7792 57.7307 75.2485 58.596C75.7179 59.4613 75.9525 60.444 75.9525 61.544C75.9525 62.644 75.7179 63.6267 75.2485 64.492C74.7792 65.3573 74.1412 66.0393 73.3345 66.538C72.5425 67.022 71.6332 67.264 70.6065 67.264C69.7999 67.264 69.0959 67.1173 68.4945 66.824C67.8932 66.516 67.4019 66.098 67.0205 65.57V71.84H64.0505ZM69.9465 64.668C70.5185 64.668 71.0319 64.536 71.4865 64.272C71.9412 64.008 72.2932 63.6413 72.5425 63.172C72.8065 62.7027 72.9385 62.16 72.9385 61.544C72.9385 60.928 72.8065 60.3853 72.5425 59.916C72.2932 59.432 71.9412 59.058 71.4865 58.794C71.0319 58.5153 70.5185 58.376 69.9465 58.376C69.3599 58.376 68.8392 58.5153 68.3845 58.794C67.9299 59.058 67.5705 59.432 67.3065 59.916C67.0572 60.3853 66.9325 60.9207 66.9325 61.522C66.9325 62.138 67.0572 62.688 67.3065 63.172C67.5705 63.6413 67.9299 64.008 68.3845 64.272C68.8392 64.536 69.3599 64.668 69.9465 64.668ZM83.4166 67.264C82.3019 67.264 81.3119 67.022 80.4466 66.538C79.5812 66.0393 78.8992 65.3647 78.4006 64.514C77.9166 63.6487 77.6746 62.6587 77.6746 61.544C77.6746 60.4147 77.9166 59.4247 78.4006 58.574C78.8992 57.7087 79.5812 57.0267 80.4466 56.528C81.3119 56.0293 82.3019 55.78 83.4166 55.78C84.8246 55.78 86.0126 56.154 86.9806 56.902C87.9486 57.6353 88.5646 58.6473 88.8286 59.938H85.6826C85.5506 59.4393 85.2792 59.0507 84.8686 58.772C84.4579 58.4787 83.9666 58.332 83.3946 58.332C82.8812 58.332 82.4192 58.4567 82.0086 58.706C81.6126 58.9553 81.2972 59.322 81.0626 59.806C80.8279 60.29 80.7106 60.862 80.7106 61.522C80.7106 62.0207 80.7766 62.468 80.9086 62.864C81.0552 63.26 81.2459 63.5973 81.4806 63.876C81.7299 64.1547 82.0159 64.3673 82.3386 64.514C82.6612 64.6607 83.0132 64.734 83.3946 64.734C83.7759 64.734 84.1206 64.6753 84.4286 64.558C84.7366 64.426 85.0006 64.2427 85.2206 64.008C85.4406 63.7587 85.5946 63.458 85.6826 63.106H88.8286C88.5646 64.3673 87.9486 65.3793 86.9806 66.142C86.0126 66.89 84.8246 67.264 83.4166 67.264ZM96.1649 67.264C95.1089 67.264 94.1555 67.022 93.3049 66.538C92.4689 66.0393 91.8015 65.3647 91.3029 64.514C90.8042 63.6487 90.5549 62.6587 90.5549 61.544C90.5549 60.4 90.8042 59.3953 91.3029 58.53C91.8015 57.6647 92.4762 56.99 93.3269 56.506C94.1775 56.022 95.1235 55.78 96.1649 55.78C97.2355 55.78 98.1889 56.022 99.0249 56.506C99.8755 56.99 100.543 57.6647 101.027 58.53C101.526 59.3953 101.775 60.4 101.775 61.544C101.775 62.6587 101.526 63.6487 101.027 64.514C100.543 65.3647 99.8755 66.0393 99.0249 66.538C98.1742 67.022 97.2209 67.264 96.1649 67.264ZM96.1649 64.69C96.6489 64.69 97.0815 64.5727 97.4629 64.338C97.8442 64.1033 98.1522 63.7513 98.3869 63.282C98.6362 62.8127 98.7609 62.226 98.7609 61.522C98.7609 60.818 98.6435 60.2313 98.4089 59.762C98.1742 59.2927 97.8589 58.9407 97.4629 58.706C97.0815 58.4713 96.6562 58.354 96.1869 58.354C95.7175 58.354 95.2849 58.4713 94.8889 58.706C94.4929 58.9407 94.1775 59.2927 93.9429 59.762C93.7082 60.2313 93.5909 60.818 93.5909 61.522C93.5909 62.226 93.7082 62.8127 93.9429 63.282C94.1775 63.7513 94.4855 64.1033 94.8669 64.338C95.2629 64.5727 95.6955 64.69 96.1649 64.69ZM103.873 67V56.044H106.491L106.733 57.518C107.085 56.99 107.547 56.572 108.119 56.264C108.706 55.9413 109.38 55.78 110.143 55.78C110.7 55.78 111.199 55.8533 111.639 56C112.094 56.1467 112.49 56.3667 112.827 56.66C113.179 56.9387 113.465 57.2833 113.685 57.694C114.11 57.1073 114.653 56.6453 115.313 56.308C115.988 55.956 116.714 55.78 117.491 55.78C118.459 55.78 119.266 55.978 119.911 56.374C120.571 56.7553 121.07 57.32 121.407 58.068C121.744 58.816 121.913 59.7327 121.913 60.818V67H118.965V61.104C118.965 60.1947 118.789 59.498 118.437 59.014C118.085 58.53 117.55 58.288 116.831 58.288C116.332 58.288 115.9 58.4127 115.533 58.662C115.166 58.8967 114.88 59.2413 114.675 59.696C114.484 60.136 114.389 60.6787 114.389 61.324V67H111.419V61.104C111.419 60.1947 111.243 59.498 110.891 59.014C110.539 58.53 109.989 58.288 109.241 58.288C108.772 58.288 108.354 58.4127 107.987 58.662C107.635 58.8967 107.356 59.2413 107.151 59.696C106.946 60.136 106.843 60.6787 106.843 61.324V67H103.873ZM124.275 67V56.044H127.245V67H124.275ZM125.771 54.482C125.228 54.482 124.781 54.328 124.429 54.02C124.092 53.6973 123.923 53.294 123.923 52.81C123.923 52.326 124.092 51.93 124.429 51.622C124.781 51.2993 125.228 51.138 125.771 51.138C126.299 51.138 126.732 51.2993 127.069 51.622C127.421 51.93 127.597 52.326 127.597 52.81C127.597 53.294 127.421 53.6973 127.069 54.02C126.732 54.328 126.299 54.482 125.771 54.482ZM129.741 67V56.044H132.359L132.579 57.87C132.917 57.254 133.401 56.7553 134.031 56.374C134.662 55.978 135.417 55.78 136.297 55.78C137.207 55.78 137.977 55.978 138.607 56.374C139.238 56.7553 139.722 57.32 140.059 58.068C140.397 58.816 140.565 59.7327 140.565 60.818V67H137.595V61.104C137.595 60.1947 137.412 59.498 137.045 59.014C136.679 58.53 136.099 58.288 135.307 58.288C134.809 58.288 134.361 58.4127 133.965 58.662C133.569 58.8967 133.261 59.2413 133.041 59.696C132.821 60.136 132.711 60.6787 132.711 61.324V67H129.741ZM147.589 72.104C146.533 72.104 145.609 71.972 144.817 71.708C144.04 71.4587 143.438 71.07 143.013 70.542C142.588 70.0287 142.375 69.3907 142.375 68.628C142.375 68.1147 142.507 67.6307 142.771 67.176C143.035 66.736 143.416 66.3327 143.915 65.966C144.428 65.5847 145.059 65.262 145.807 64.998L146.907 66.472C146.247 66.692 145.77 66.9633 145.477 67.286C145.184 67.6087 145.037 67.9533 145.037 68.32C145.037 68.6573 145.147 68.9433 145.367 69.178C145.602 69.4127 145.91 69.5813 146.291 69.684C146.672 69.8013 147.098 69.86 147.567 69.86C148.022 69.86 148.418 69.8013 148.755 69.684C149.107 69.5667 149.378 69.3907 149.569 69.156C149.774 68.936 149.877 68.6793 149.877 68.386C149.877 67.99 149.738 67.6673 149.459 67.418C149.18 67.1687 148.63 67.0147 147.809 66.956C147.061 66.8973 146.401 66.8167 145.829 66.714C145.257 66.5967 144.751 66.4647 144.311 66.318C143.886 66.1567 143.519 65.988 143.211 65.812C142.903 65.6213 142.661 65.4307 142.485 65.24V64.734L144.839 62.182L146.907 62.864L144.179 65.614L145.037 64.162C145.184 64.25 145.338 64.338 145.499 64.426C145.66 64.4993 145.851 64.5727 146.071 64.646C146.306 64.7047 146.606 64.7633 146.973 64.822C147.354 64.866 147.831 64.91 148.403 64.954C149.371 65.042 150.163 65.2253 150.779 65.504C151.395 65.7827 151.85 66.1567 152.143 66.626C152.436 67.0953 152.583 67.66 152.583 68.32C152.583 68.9653 152.4 69.574 152.033 70.146C151.681 70.7327 151.131 71.202 150.383 71.554C149.65 71.9207 148.718 72.104 147.589 72.104ZM147.589 63.766C146.665 63.766 145.866 63.59 145.191 63.238C144.531 62.8713 144.018 62.3873 143.651 61.786C143.299 61.1847 143.123 60.5173 143.123 59.784C143.123 59.036 143.299 58.3687 143.651 57.782C144.018 57.1807 144.531 56.6967 145.191 56.33C145.866 55.9633 146.665 55.78 147.589 55.78C148.513 55.78 149.305 55.9633 149.965 56.33C150.64 56.6967 151.153 57.1807 151.505 57.782C151.872 58.3687 152.055 59.036 152.055 59.784C152.055 60.5173 151.872 61.1847 151.505 61.786C151.153 62.3873 150.64 62.8713 149.965 63.238C149.305 63.59 148.513 63.766 147.589 63.766ZM147.589 61.5C148.146 61.5 148.601 61.3533 148.953 61.06C149.305 60.7667 149.481 60.3413 149.481 59.784C149.481 59.2413 149.305 58.8233 148.953 58.53C148.601 58.2367 148.146 58.09 147.589 58.09C147.032 58.09 146.57 58.2367 146.203 58.53C145.851 58.8233 145.675 59.2413 145.675 59.784C145.675 60.3413 145.851 60.7667 146.203 61.06C146.57 61.3533 147.032 61.5 147.589 61.5ZM149.393 58.156L148.909 56.044H153.485V57.804L149.393 58.156ZM160.241 67V51.6H170.383V53.998H163.211V58.024H169.723V60.334H163.211V64.602H170.383V67H160.241ZM175.466 67L171.462 56.044H174.586L177.27 64.206L179.976 56.044H183.078L179.074 67H175.466ZM189.241 67.264C188.126 67.264 187.136 67.0293 186.271 66.56C185.42 66.076 184.753 65.416 184.269 64.58C183.785 63.7293 183.543 62.7467 183.543 61.632C183.543 60.488 183.777 59.4833 184.247 58.618C184.731 57.738 185.398 57.0487 186.249 56.55C187.114 56.0367 188.119 55.78 189.263 55.78C190.348 55.78 191.301 56.022 192.123 56.506C192.959 56.9753 193.604 57.6207 194.059 58.442C194.528 59.2487 194.763 60.1653 194.763 61.192C194.763 61.3387 194.755 61.5073 194.741 61.698C194.741 61.874 194.733 62.0573 194.719 62.248H185.677V60.444H191.749C191.705 59.7547 191.448 59.212 190.979 58.816C190.524 58.4053 189.952 58.2 189.263 58.2C188.749 58.2 188.28 58.3173 187.855 58.552C187.429 58.772 187.092 59.1093 186.843 59.564C186.593 60.0187 186.469 60.598 186.469 61.302V61.94C186.469 62.5267 186.586 63.04 186.821 63.48C187.055 63.9053 187.378 64.2427 187.789 64.492C188.214 64.7267 188.691 64.844 189.219 64.844C189.761 64.844 190.216 64.7267 190.583 64.492C190.949 64.2427 191.228 63.9273 191.419 63.546H194.433C194.227 64.25 193.883 64.8807 193.399 65.438C192.915 65.9953 192.321 66.4427 191.617 66.78C190.913 67.1027 190.121 67.264 189.241 67.264ZM196.689 67V56.044H199.307L199.527 57.87C199.864 57.254 200.348 56.7553 200.979 56.374C201.61 55.978 202.365 55.78 203.245 55.78C204.154 55.78 204.924 55.978 205.555 56.374C206.186 56.7553 206.67 57.32 207.007 58.068C207.344 58.816 207.513 59.7327 207.513 60.818V67H204.543V61.104C204.543 60.1947 204.36 59.498 203.993 59.014C203.626 58.53 203.047 58.288 202.255 58.288C201.756 58.288 201.309 58.4127 200.913 58.662C200.517 58.8967 200.209 59.2413 199.989 59.696C199.769 60.136 199.659 60.6787 199.659 61.324V67H196.689ZM214.713 67C213.95 67 213.275 66.8827 212.689 66.648C212.102 66.3987 211.647 65.9953 211.325 65.438C211.002 64.866 210.841 64.0887 210.841 63.106V58.53H208.971V56.044H210.841L211.171 53.074H213.811V56.044H216.737V58.53H213.811V63.15C213.811 63.6487 213.921 63.9933 214.141 64.184C214.361 64.3747 214.735 64.47 215.263 64.47H216.671V67H214.713ZM223.265 67.264C222.297 67.264 221.439 67.1027 220.691 66.78C219.943 66.4573 219.349 66.0173 218.909 65.46C218.469 64.888 218.212 64.2427 218.139 63.524H221.109C221.168 63.788 221.292 64.0373 221.483 64.272C221.674 64.492 221.916 64.668 222.209 64.8C222.502 64.932 222.84 64.998 223.221 64.998C223.632 64.998 223.962 64.9467 224.211 64.844C224.46 64.7267 224.644 64.58 224.761 64.404C224.878 64.2133 224.937 64.0227 224.937 63.832C224.937 63.524 224.849 63.2967 224.673 63.15C224.497 62.9887 224.233 62.8567 223.881 62.754C223.544 62.6513 223.14 62.5413 222.671 62.424C222.187 62.3213 221.696 62.1967 221.197 62.05C220.698 61.9033 220.244 61.7127 219.833 61.478C219.437 61.2433 219.114 60.95 218.865 60.598C218.616 60.2313 218.491 59.784 218.491 59.256C218.491 58.6107 218.667 58.024 219.019 57.496C219.386 56.968 219.899 56.55 220.559 56.242C221.234 55.934 222.04 55.78 222.979 55.78C224.284 55.78 225.326 56.088 226.103 56.704C226.895 57.3053 227.357 58.134 227.489 59.19H224.695C224.622 58.838 224.431 58.5667 224.123 58.376C223.83 58.1707 223.441 58.068 222.957 58.068C222.444 58.068 222.048 58.1633 221.769 58.354C221.505 58.5447 221.373 58.7867 221.373 59.08C221.373 59.2707 221.468 59.4467 221.659 59.608C221.85 59.7547 222.114 59.8867 222.451 60.004C222.788 60.1067 223.192 60.2167 223.661 60.334C224.453 60.51 225.164 60.708 225.795 60.928C226.44 61.148 226.954 61.4633 227.335 61.874C227.716 62.2847 227.907 62.8787 227.907 63.656C227.922 64.3453 227.738 64.9687 227.357 65.526C226.976 66.0687 226.44 66.494 225.751 66.802C225.062 67.11 224.233 67.264 223.265 67.264Z" fill="#0D008F"/>
</g>
<defs>
<filter id="filter0_d_372_4537" x="0" y="0" width="397" height="352" filterUnits="userSpaceOnUse" color-interpolation-filters="sRGB">
<feFlood flood-opacity="0" result="BackgroundImageFix"/>
<feColorMatrix in="SourceAlpha" type="matrix" values="0 0 0 0 0 0 0 0 0 0 0 0 0 0 0 0 0 0 127 0" result="hardAlpha"/>
<feOffset dy="4"/>
<feGaussianBlur stdDeviation="10"/>
<feComposite in2="hardAlpha" operator="out"/>
<feColorMatrix type="matrix" values="0 0 0 0 0.748549 0 0 0 0 0.694658 0 0 0 0 0.984167 0 0 0 0.38 0"/>
<feBlend mode="normal" in2="BackgroundImageFix" result="effect1_dropShadow_372_4537"/>
<feBlend mode="normal" in="SourceGraphic" in2="effect1_dropShadow_372_4537" result="shape"/>
</filter>
</defs>
</svg>
